<?xml version="1.0" encoding="utf-8"?>
<!-- Generator: Adobe Illustrator 26.0.1, SVG Export Plug-In . SVG Version: 6.00 Build 0)  -->
<svg version="1.1" id="Layer_1" xmlns="http://www.w3.org/2000/svg" xmlns:xlink="http://www.w3.org/1999/xlink" x="0px" y="0px"
	 width="60.1px" height="52.7px" viewBox="0 0 60.1 52.7" style="enable-background:new 0 0 60.1 52.7;" xml:space="preserve">
<style type="text/css">
	.st0{display:none;fill:#010101;}
	.st1{fill:#010101;}
	.st2{fill:#BC1F47;}
</style>
<path id="top_bar" class="st0" d="M9.9,4.5c2.7,2.1,5.3,4.2,8,6.3l0,4.5c-2.7-2.2-5.3-4.4-8-6.7c-2.6,2.3-5.1,4.6-7.7,6.9
	c0-1.5,0-3,0-4.5C4.7,8.8,7.3,6.7,9.9,4.5z M10.1,20c-1.5-1.2-3-2.3-4.5-3.5l0-2.8c1.5,1.2,3,2.4,4.5,3.6c1.4-1.3,2.9-2.5,4.3-3.8
	c0,0.9,0,1.9,0,2.8C13,17.6,11.5,18.8,10.1,20z M20,0H0v1.2h20V0z"/>
<path id="full_screen" class="st1" d="M6.4,0.9c0.2,0,0.3,0,0.5,0.1c0.3,0.2,0.3,0.6,0.3,0.9C7.1,2.2,6.8,2.4,6.5,2.3
	c-0.9,0-1.8,0.1-2.6,0.1C5.3,3.9,6.6,5.3,8,6.8c0.3,0.3,0.2,0.8-0.2,1C7.6,8,7.2,8,7,7.7c-1.4-1.5-2.6-2.8-4-4.3
	c0,0.9,0,1.8-0.1,2.8c0,0.3-0.1,0.5-0.3,0.6C2.4,7.2,1.9,7.1,1.7,6.7C1.6,6.5,1.6,6.4,1.6,6.2c0-1.5,0.1-2.9,0.1-4.4
	C1.7,1.4,2,1,2.4,1C3.7,1,5.1,1,6.4,0.9z M17.6,1c0.3,0,0.7,0.3,0.7,0.7c0.1,1.5,0.1,2.9,0.1,4.4c0,0.2,0,0.4-0.1,0.6
	c-0.2,0.4-0.7,0.4-0.9,0.2c-0.2-0.1-0.3-0.4-0.3-0.6c0-0.9,0-1.8-0.1-2.8c-1.4,1.5-2.7,2.9-4,4.3C12.9,8,12.4,8,12.2,7.8
	c-0.3-0.2-0.4-0.7-0.2-1c1.4-1.5,2.7-2.9,4.1-4.4c-0.9,0-1.8-0.1-2.6-0.1c-0.3,0-0.5-0.1-0.6-0.4c-0.2-0.3-0.1-0.7,0.3-0.9
	c0.2-0.1,0.3-0.1,0.5-0.1C15,1,16.3,1,17.6,1z M2.4,18.9c-0.3,0-0.7-0.3-0.7-0.7c-0.1-1.5-0.1-2.9-0.1-4.4c0-0.2,0-0.4,0.1-0.6
	c0.2-0.4,0.7-0.4,0.9-0.2c0.2,0.1,0.3,0.4,0.3,0.6c0,0.9,0,1.8,0.1,2.8c1.4-1.5,2.7-2.9,4-4.3c0.2-0.3,0.6-0.3,0.9-0.1
	c0.3,0.2,0.4,0.7,0.2,1c-1.4,1.5-2.7,2.9-4.1,4.4c0.9,0,1.8,0.1,2.6,0.1c0.3,0,0.5,0.1,0.6,0.4c0.2,0.3,0.1,0.7-0.3,0.9
	c-0.2,0.1-0.3,0.1-0.5,0.1C5.1,18.9,3.7,18.9,2.4,18.9z M13.6,18.9c-0.2,0-0.3,0-0.5-0.1c-0.3-0.2-0.3-0.6-0.3-0.9
	c0.1-0.3,0.3-0.5,0.6-0.4c0.9,0,1.8-0.1,2.6-0.1c-1.4-1.5-2.7-2.9-4.1-4.4c-0.3-0.3-0.2-0.8,0.2-1c0.3-0.2,0.6-0.2,0.9,0.1
	c1.4,1.5,2.6,2.8,4,4.3c0-0.9,0-1.8,0.1-2.8c0-0.3,0.1-0.5,0.3-0.6c0.3-0.3,0.7-0.2,0.9,0.2c0.1,0.2,0.1,0.4,0.1,0.6
	c0,1.5-0.1,2.9-0.1,4.4c0,0.4-0.3,0.7-0.7,0.7C16.3,18.9,15,18.9,13.6,18.9z M20,20H0V0h20V20z M0.5,19.5h19.1V0.5H0.5V19.5z"/>
<path id="not_full" class="st2" d="M0.5,20.3c-0.2,0-0.4-0.1-0.5-0.2c-0.3-0.3-0.3-0.8,0-1.1L19-0.1c0.3-0.3,0.8-0.3,1.1,0
	s0.3,0.8,0,1.1L1,20.1C0.9,20.2,0.7,20.3,0.5,20.3z"/>
<path id="set_hight" class="st1" d="M0,0v20h20V0H0z M19.5,19.5H0.5V0.5h19.1V19.5z M10.1,19.1C10,19.1,10,19.1,10.1,19.1
	c-0.2,0-0.4,0-0.5-0.1l-2.9-2.9c-0.2-0.2-0.2-0.5,0-0.7s0.5-0.2,0.7,0l2.1,2.1v-6.4c0-0.3,0.2-0.5,0.5-0.5s0.5,0.2,0.5,0.5v6.4
	l2.1-2.1c0.2-0.2,0.5-0.2,0.7,0s0.2,0.5,0,0.7l-2.9,2.9C10.3,19,10.2,19.1,10.1,19.1z M10,9.6c-0.3,0-0.5-0.2-0.5-0.5V2.7L7.4,4.8
	C7.2,5,6.9,5,6.7,4.8s-0.2-0.5,0-0.7l2.9-2.9C9.7,1.1,9.8,1.1,10,1.1c0.1,0,0.3,0,0.4,0.1l2.9,2.9c0.2,0.2,0.2,0.5,0,0.7
	s-0.5,0.2-0.7,0l-2.1-2.1v6.4C10.5,9.4,10.3,9.6,10,9.6z"/>
</svg>
