<?xml version="1.0" encoding="utf-8"?>
<!--
  - Copyright © 2023  Information Aesthetics. All rights reserved.
  - This work is licensed under the GPL2, V2 license.
  -->

<!--
  - Copyright © 2023  Information Aesthetics. All rights reserved.
  - This work is licensed under the GPL2, V2 license.
  -->

<!-- Generator: Adobe Illustrator 26.0.1, SVG Export Plug-In . SVG Version: 6.00 Build 0)  -->
<svg version="1.1" id="Layer_1" xmlns="http://www.w3.org/2000/svg" xmlns:xlink="http://www.w3.org/1999/xlink" x="0px" y="0px"
	 width="306.6px" height="271.9px" viewBox="0 0 306.6 271.9" style="enable-background:new 0 0 306.6 271.9;" xml:space="preserve"
	>
<style type="text/css">
	.st0{fill:#FFFFFF;fill-opacity:0;}
	.st1{fill:#FFF4E0;}
	.st2{fill:#F48E97;}
	.st3{fill:#6757AA;}
	.st4{fill:#14C0EF;}
	.st5{opacity:0.64;fill:#FFF4E0;enable-background:new    ;}
	.st6{fill:#265E26;}
	.st7{font-family:'ArialMT';}
	.st8{font-size:16px;}
	.st9{fill:#A09782;}
	.st10{opacity:0.72;fill:#FFFFFF;enable-background:new    ;}
	.st11{fill:#AAA8A5;stroke:#706B64;stroke-width:0.5;stroke-miterlimit:10;}
	.st12{fill:#D0F2FC;}
	.st13{fill:#50EFD0;fill-opacity:0;}
	.st14{fill:none;stroke:#14C0EF;stroke-miterlimit:10;}
	.st15{opacity:0;fill:none;}
	.st16{fill:none;stroke:#14C0EF;stroke-width:5;stroke-linecap:round;stroke-miterlimit:10;}
</style>
<g id="iamg_image_library_icon">
	<rect x="58.9" y="7.5" class="st0" width="42" height="25.4"/>
	<g>
		<circle class="st1" cx="81.5" cy="16.3" r="7.3"/>
		<circle class="st2" cx="81.5" cy="16.3" r="5.1"/>
		<path class="st3" d="M86.3,15.5L78.5,29c-0.9,1.5,0.2,3.5,2,3.5h15.6c1.8,0,2.9-1.9,2-3.5l-7.8-13.5C89.4,14,87.2,14,86.3,15.5z"
			/>
		<path class="st4" d="M73,8.7L61.2,29c-0.9,1.5,0.2,3.5,2,3.5h23.5c1.8,0,2.9-1.9,2-3.5L77,8.7C76.1,7.1,73.9,7.1,73,8.7z"/>
	</g>
</g>
<g id="iamg_video_library_icon">
	<path class="st4" d="M131.2,32.5h-20.4c-1.1,0-1.9-0.9-1.9-1.9v-17c0-1.1,0.9-1.9,1.9-1.9h20.4c1.1,0,1.9,0.9,1.9,1.9v17
		C133.1,31.6,132.2,32.5,131.2,32.5z"/>
	<path class="st3" d="M137.7,13.9l-11.2,6.5c-1.3,0.7-1.3,2.6,0,3.4l11.2,6.5c1.3,0.7,2.9-0.2,2.9-1.7v-13
		C140.6,14.1,139,13.2,137.7,13.9z"/>
	<circle class="st1" cx="124.8" cy="12.5" r="5"/>
	<circle class="st2" cx="116" cy="13.6" r="3.9"/>
</g>
<g id="iamg_included_images_icon">
	<rect x="133.9" y="54.1" class="st0" width="42.8" height="28"/>
	<path class="st4" d="M169.7,79.7H140c-1.7,0-3.1-1.4-3.1-3.1v-19c0-1.7,1.4-3.1,3.1-3.1h29.7c1.7,0,3.1,1.4,3.1,3.1v19
		C172.8,78.3,171.4,79.7,169.7,79.7z"/>
	<path class="st3" d="M172.9,82.1h-22.5c-1.3,0-2.3-1-2.3-2.3V65.4c0-1.3,1-2.3,2.3-2.3h22.5c1.3,0,2.3,1,2.3,2.3v14.4
		C175.2,81,174.2,82.1,172.9,82.1z"/>
	<path class="st5" d="M161.4,73h-16.1c-0.9,0-1.7-0.7-1.7-1.7V61.1c0-0.9,0.7-1.7,1.7-1.7h16.1c0.9,0,1.7,0.7,1.7,1.7v10.3
		C163.1,72.3,162.3,73,161.4,73z"/>
	<text id="iamg_num_pictures" transform="matrix(1 0 0 1 166.3163 80.5655)" class="st6 st7 st8">0</text>
</g>
<g id="iamg_included_images_clear_icon">
	<rect x="186.3" y="57.5" class="st0" width="16.2" height="28"/>
	<path class="st9" d="M200.7,58.5h-4v-0.1c0-0.7-0.6-1.3-1.3-1.3h-1.3c-0.7,0-1.3,0.6-1.3,1.3v0.1h-4c-0.9,0-1.7,0.8-1.7,1.7v0.6
		c0,0.9,0.8,1.7,1.7,1.7h12c0.9,0,1.7-0.8,1.7-1.7v-0.6C202.4,59.3,201.6,58.5,200.7,58.5z"/>
	<g>
		<path class="st9" d="M196.7,70.1v-4.4c0-1-0.7-2-1.7-2.1c-1.2-0.2-2.3,0.8-2.3,2v4.5c0,1.1,0.9,2,2,2h0.1
			C195.8,72.1,196.7,71.2,196.7,70.1z"/>
		<path class="st9" d="M202.4,83.1V65.6c0-1.1-0.9-2-2-2s-2,0.9-2,2v16.1H198l0,0h-5.3l0,0h-1.8V65.6c0-1.1-0.9-2-2-2s-2,0.9-2,2
			v17.5v0.1v0.1v0.6c0,0.8,0.8,1.6,1.7,1.6h12.1c0.9,0,1.7-0.8,1.7-1.6v-0.6V83.1z"/>
	</g>
</g>
<g id="iamg_included_one_image_clear_icon">
	<circle class="st10" cx="219.3" cy="71.5" r="15"/>
	<path class="st11" d="M222.2,71.5l6.1-6.1c0.8-0.8,0.8-2,0-2.8s-2-0.8-2.8,0l-6.1,6.1l-6.1-6.1c-0.8-0.8-2-0.8-2.8,0s-0.8,2,0,2.8
		l6.1,6.1l-6.1,6.1c-0.8,0.8-0.8,2,0,2.8c0.4,0.4,0.9,0.6,1.4,0.6s1-0.2,1.4-0.6l6.1-6.1l6.1,6.1c0.4,0.4,0.9,0.6,1.4,0.6
		s1-0.2,1.4-0.6c0.8-0.8,0.8-2,0-2.8L222.2,71.5z"/>
</g>
<g id="iamg_create_gallery_icon">
	<path class="st4" d="M127.1,54.3H93.6c-0.1,0-0.3,0-0.4,0c-0.5,0-0.9,0-1.4,0c-14,0-25.4,11.4-25.4,25.4s11.4,25.4,25.4,25.4
		s25.4-11.4,25.4-25.4h9.9c1.5,0,2.8-1.3,2.8-2.8V57.1C129.9,55.6,128.7,54.3,127.1,54.3z"/>
	<circle class="st12" cx="92.1" cy="79.7" r="18.6"/>
	<path class="st3" d="M83.9,70.1v19.2c0,1.2,1.3,2,2.4,1.4l16.7-9.6c1.1-0.6,1.1-2.1,0-2.8l-16.7-9.6C85.3,68.1,83.9,68.9,83.9,70.1
		z"/>
</g>
<g id="iamg_back_icon">
	<path class="st4" d="M102,111h39.7c-1.3,0.8-2.7,1.7-4,2.8c-8.5,7.4-9.8,18.4-10,22.9C119.1,128.1,110.6,119.6,102,111z"/>
	<circle class="st4" cx="102" cy="136.7" r="25.7"/>
	<circle class="st12" cx="102" cy="136.7" r="18.6"/>
	<path class="st3" d="M96.8,123.6c0.5-0.5,1-1,1.6-1.2c1.2-0.3,2.4,0.5,2.8,1.6c0.4,1,0.1,2-0.7,2.7c-2.3,2.4-4.6,4.9-6.9,7.3
		c7.4,0,14.7,0,22.1,0c1.5,0,2.6,1.6,2.2,3c-0.2,1.2-1.3,2.1-2.5,2c-7.2,0-14.5,0-21.8,0c2.3,2.5,4.6,4.8,6.9,7.3
		c0.6,0.6,1,1.5,0.8,2.3c-0.1,1.3-1.5,2.4-2.9,2.1c-0.7-0.1-1.1-0.6-1.6-1.1c-3.6-3.8-7.2-7.5-10.7-11.3c-1-1-1-2.8,0.1-3.7
		C89.8,131,93.3,127.3,96.8,123.6z"/>
</g>
<g id="iamg_save_pres_icon">
	<path class="st4" d="M212.1,163.1c39.1,0,70.7-23,70.7-51.4H141.4C141.4,140.1,173.2,163.1,212.1,163.1z"/>
	<ellipse class="st12" cx="212.1" cy="137.1" rx="39.2" ry="18.6"/>
	<g>
		<path class="st3" d="M221.1,122.9h-2.6v7.7c0,0.7-0.6,1.3-1.3,1.3h-11.6c-0.7,0-1.3-0.6-1.3-1.3v-7.7h-3.9c-1.4,0-2.6,1.2-2.6,2.6
			v23.1c0,1.4,1.2,2.6,2.6,2.6h23.1c1.4,0,2.6-1.2,2.6-2.6V128L221.1,122.9z M221.1,148.6h-18v-7.7c0-1.4,1.2-2.6,2.6-2.6h12.9
			c1.4,0,2.6,1.2,2.6,2.6v7.7H221.1z"/>
		<rect x="213.4" y="122.9" class="st3" width="2.6" height="6.4"/>
	</g>
</g>
<g id="iamg_width_head">
	<path class="st13" d="M287.9,13.1v16.5c0,1.3-1.1,2.4-2.4,2.4h-25.2c-1.3,0-2.4-1.1-2.4-2.4V13.1c0-1.3,1.1-2.4,2.4-2.4h25.2
		C286.8,10.7,287.9,11.8,287.9,13.1z"/>
	<path class="st14" d="M287.9,13.1v16.5c0,1.3-1.1,2.4-2.4,2.4h-25.2c-1.3,0-2.4-1.1-2.4-2.4V13.1c0-1.3,1.1-2.4,2.4-2.4h25.2
		C286.8,10.7,287.9,11.8,287.9,13.1z"/>
	<rect x="263.4" y="18.5" class="st12" width="19.1" height="5.8"/>
	<path class="st3" d="M272.3,11.1c0.2-0.3,0.7-0.3,1,0c1,1,2.1,2,3.1,2.9c0.1,0.1,0.3,0.2,0.3,0.4c0.1,0.4-0.2,0.8-0.6,0.8
		c-0.2,0.1-0.5-0.1-0.6-0.2c-0.7-0.6-1.3-1.3-2-1.9c0,2,0,4,0,6c0,0.3-0.2,0.6-0.5,0.7c-0.4,0.1-0.8-0.2-0.8-0.6c0-2,0-4,0-6.1
		c-0.7,0.6-1.3,1.3-2,1.9c-0.2,0.2-0.5,0.3-0.7,0.2c-0.3-0.1-0.5-0.4-0.4-0.8c0.1-0.2,0.2-0.3,0.3-0.4
		C270.3,13.1,271.3,12.1,272.3,11.1z"/>
	<path class="st3" d="M269.3,28.7c-0.1-0.1-0.3-0.3-0.3-0.4c-0.1-0.3,0.1-0.7,0.4-0.8c0.3-0.1,0.5,0,0.7,0.2c0.7,0.6,1.3,1.3,2,1.9
		c0-2,0-4,0-6.1c0-0.4,0.4-0.7,0.8-0.6c0.3,0.1,0.6,0.4,0.5,0.7c0,2,0,4,0,6c0.7-0.6,1.3-1.3,2-1.9c0.2-0.2,0.4-0.3,0.6-0.2
		c0.4,0,0.7,0.4,0.6,0.8c0,0.2-0.2,0.3-0.3,0.4c-1,1-2.1,2-3.1,2.9c-0.3,0.3-0.8,0.3-1,0C271.3,30.7,270.3,29.7,269.3,28.7z"/>
</g>
<g id="iamg_height_toggle_percent">
	<path class="st12" d="M277.6,37.7v16.2c0,1.1-0.9,1.9-1.9,1.9h-16.2c-1.1,0-1.9-0.9-1.9-1.9V37.7c0-1.1,0.9-1.9,1.9-1.9h16.2
		C276.7,35.8,277.6,36.7,277.6,37.7z"/>
	<g>
		<path class="st3" d="M263.1,44.6c-0.4-0.4-0.6-1-0.6-2s0.2-1.7,0.6-2c0.4-0.4,0.9-0.6,1.6-0.6c0.6,0,1.1,0.2,1.6,0.6
			c0.4,0.4,0.6,1.1,0.6,2c0,1-0.2,1.6-0.6,2s-0.9,0.6-1.6,0.6C264,45.1,263.5,45,263.1,44.6z M265.8,42.6c0-0.5-0.1-0.9-0.2-1.3
			c-0.2-0.3-0.5-0.5-1-0.5s-0.8,0.2-0.9,0.5c-0.1,0.3-0.2,0.7-0.2,1.3c0,0.5,0.1,0.9,0.2,1.2s0.4,0.5,0.9,0.5
			C265.4,44.3,265.8,43.7,265.8,42.6z M264.1,51.3c-0.1,0-0.1-0.1-0.1-0.1c0-0.1,0-0.1,0.1-0.2l6-10.8c0.1-0.1,0.1-0.2,0.2-0.2
			c0.1-0.1,0.2-0.1,0.4-0.1h0.1c0.1,0,0.2,0,0.3,0s0.1,0.1,0.1,0.1s0,0,0,0.1v0.1l-6,10.8c-0.1,0.2-0.3,0.3-0.6,0.3h-0.1
			C264.3,51.4,264.2,51.3,264.1,51.3z M269,50.8c-0.4-0.4-0.6-1-0.6-2s0.2-1.7,0.6-2c0.4-0.4,0.9-0.6,1.6-0.6c0.6,0,1.1,0.2,1.6,0.6
			c0.4,0.4,0.6,1.1,0.6,2c0,1-0.2,1.6-0.6,2c-0.4,0.4-0.9,0.6-1.5,0.6C269.9,51.3,269.4,51.1,269,50.8z M271.7,48.7
			c0-0.5-0.1-0.9-0.2-1.3c-0.1-0.4-0.5-0.5-0.9-0.5c-0.5,0-0.8,0.2-0.9,0.5s-0.2,0.8-0.2,1.3s0.1,0.9,0.2,1.2
			c0.1,0.3,0.5,0.5,0.9,0.5C271.3,50.4,271.7,49.9,271.7,48.7z"/>
	</g>
</g>
<g id="iamg_height_toggle_pixel">
	<path class="st12" d="M277.6,62.5v16.2c0,1.1-0.9,1.9-1.9,1.9h-16.2c-1.1,0-1.9-0.9-1.9-1.9V62.5c0-1.1,0.9-1.9,1.9-1.9h16.2
		C276.7,60.6,277.6,61.5,277.6,62.5z"/>
	<g>
		<path class="st3" d="M260.7,76c-0.1-0.1-0.1-0.1-0.1-0.3V65.3c0-0.2,0-0.3,0.1-0.4c0.1-0.1,0.2-0.1,0.4-0.1h3.2
			c0.9,0,1.8,0.2,2.5,0.7c0.7,0.5,1.1,1.3,1.1,2.5c0,0.9-0.2,1.6-0.6,2.1c-0.4,0.5-0.9,0.8-1.4,1s-1,0.2-1.4,0.2h-2.6v4.5
			c0,0.1-0.1,0.2-0.2,0.3c-0.1,0.1-0.3,0.1-0.5,0.1h-0.1C260.9,76.1,260.8,76,260.7,76z M264.4,70c0.3,0,0.6-0.1,0.8-0.2
			c0.3-0.1,0.5-0.3,0.8-0.6c0.2-0.3,0.3-0.7,0.3-1.3c0-0.7-0.2-1.2-0.6-1.5c-0.4-0.3-0.9-0.4-1.5-0.4h-2.3v4H264.4z"/>
		<path class="st3" d="M268.8,76c-0.1,0-0.2-0.1-0.2-0.2s0-0.2,0.1-0.3l2.6-3.8l-2.4-3.6c-0.1-0.1-0.1-0.2-0.1-0.3s0.1-0.2,0.2-0.2
			c0.1,0,0.3-0.1,0.6-0.1h0.2c0.2,0,0.3,0,0.4,0s0.2,0.1,0.3,0.2L272,70c0.1,0.1,0.2,0.3,0.3,0.6c0,0,0.1-0.1,0.1-0.2
			c0.1-0.1,0.1-0.2,0.2-0.4l1.5-2.3c0.1-0.1,0.3-0.2,0.7-0.2h0.1c0.2,0,0.4,0,0.5,0.1c0.1,0,0.2,0.1,0.2,0.2s0,0.2-0.1,0.3l-2.4,3.5
			l2.6,3.8c0.1,0.1,0.1,0.2,0.1,0.3c0,0.1-0.1,0.2-0.2,0.2c-0.1,0-0.3,0.1-0.6,0.1h-0.1c-0.2,0-0.3,0-0.4,0s-0.2-0.1-0.2-0.2
			l-1.7-2.5c-0.1-0.1-0.2-0.3-0.2-0.4c-0.1-0.1-0.1-0.2-0.1-0.2s0,0.1-0.1,0.2s-0.1,0.2-0.2,0.4l-1.7,2.6c-0.1,0.2-0.3,0.2-0.7,0.2
			h-0.1C269,76.1,268.9,76,268.8,76z"/>
	</g>
</g>
<g id="iamg_home_icon">
	<path class="st4" d="M184.5,22.7v20.4c0,1.1-1,1.9-2.1,1.9h-18.9c-1.2,0-2.1-0.9-2.1-1.9V22.7c0-1.1,1-1.9,2.1-1.9h18.9
		C183.5,20.8,184.5,21.7,184.5,22.7z"/>
	<path class="st3" d="M186.7,21.9l-10.9-11.2c-1.2-1.3-4.4-1.3-5.7,0l-10.9,11.2c-1.2,1.3,0.3,2.9,2.9,2.9H184
		C186.4,24.8,187.9,23.2,186.7,21.9z"/>
	<circle class="st1" cx="169.4" cy="31.3" r="5"/>
	<path class="st2" d="M181.4,45h-8.5v-6.7c0-1,0.8-1.8,1.8-1.8h4.9c1,0,1.8,0.8,1.8,1.8C181.4,38.3,181.4,45,181.4,45z"/>
</g>
<g id="iamg_library_backward_icon">
	<path class="st4" d="M0,23.2V0c0.5,0.8,1,1.6,1.6,2.3C6,7.3,12.4,8.1,15,8.2C10,13.2,5,18.2,0,23.2z"/>
	<circle class="st4" cx="15" cy="23.2" r="15"/>
	<circle class="st12" cx="15" cy="23.2" r="10.9"/>
	<path class="st3" d="M12.2,15.6c0.3-0.3,0.6-0.6,0.9-0.7c0.7-0.2,1.4,0.3,1.6,0.9c0.2,0.6,0.1,1.2-0.4,1.6c-1.3,1.4-2.7,2.9-4,4.3
		c4.3,0,8.6,0,12.9,0c0.9,0,1.5,0.9,1.3,1.8c-0.1,0.7-0.8,1.2-1.5,1.2c-4.2,0-8.5,0-12.7,0c1.3,1.5,2.7,2.8,4,4.3
		c0.4,0.4,0.6,0.9,0.5,1.3c-0.1,0.8-0.9,1.4-1.7,1.2c-0.4-0.1-0.6-0.4-0.9-0.6c-2.1-2.2-4.2-4.4-6.2-6.6C5.3,23.6,5.3,22.6,6,22
		C8.1,19.9,10.1,17.8,12.2,15.6z"/>
</g>
<g id="iamg_library_forward_icon">
	<path class="st4" d="M15,69c-2.6,0.1-9,0.9-13.4,5.8C1,75.6,0.5,76.4,0,77.2V54C5,59,10,64,15,69z"/>
	<circle class="st4" cx="15" cy="54" r="15"/>
	<circle class="st12" cx="15" cy="54" r="10.9"/>
	<path class="st3" d="M17.8,61.6c-0.3,0.3-0.6,0.6-0.9,0.7c-0.7,0.2-1.4-0.3-1.6-0.9c-0.2-0.6-0.1-1.2,0.4-1.6
		c1.3-1.4,2.7-2.9,4-4.3c-4.3,0-8.6,0-12.9,0c-0.9,0-1.5-0.9-1.3-1.8C5.6,53,6.3,52.5,7,52.6c4.2,0,8.5,0,12.7,0
		c-1.3-1.5-2.7-2.8-4-4.3c-0.4-0.4-0.6-0.9-0.5-1.3c0.1-0.8,0.9-1.4,1.7-1.2c0.4,0.1,0.6,0.4,0.9,0.6c2.1,2.2,4.2,4.4,6.2,6.6
		c0.6,0.6,0.6,1.6-0.1,2.2C21.9,57.2,19.9,59.4,17.8,61.6z"/>
</g>
<g id="iamg_library_album_icon">
	<rect y="82.8" class="st15" width="21.8" height="31"/>
	<circle class="st4" cx="10.9" cy="93.7" r="10.9"/>
	<line class="st16" x1="14.3" y1="99.1" x2="21.8" y2="111.9"/>
	<circle class="st12" cx="10.9" cy="93.7" r="8.5"/>
</g>
</svg>
