<?xml version="1.0" encoding="utf-8"?>
<!--
  - Copyright © 2023  Information Aesthetics. All rights reserved.
  - This work is licensed under the GPL2, V2 license.
  -->

<!--
  - Copyright © 2023  Information Aesthetics. All rights reserved.
  - This work is licensed under the GPL2, V2 license.
  -->

<!-- Generator: Adobe Illustrator 26.0.1, SVG Export Plug-In . SVG Version: 6.00 Build 0)  -->
<svg version="1.1" id="Layer_1" xmlns="http://www.w3.org/2000/svg" xmlns:xlink="http://www.w3.org/1999/xlink" x="0px" y="0px"
	 width="247.7px" height="266.4px" viewBox="0 0 247.7 266.4" style="enable-background:new 0 0 247.7 266.4;" xml:space="preserve"
	>
<style type="text/css">
	.st0{fill:#FFFFFF;fill-opacity:0;}
	.st1{fill:#E28223;}
	.st2{fill:#E55420;}
	.st3{fill:#5A6DA3;}
	.st4{fill:#6A87EF;}
	.st5{fill:#50EFD0;}
	.st6{fill:#14C0EF;}
	.st7{opacity:0.31;fill:#D3ED15;enable-background:new    ;}
	.st8{fill:#265E26;}
	.st9{font-family:'ArialMT';}
	.st10{font-size:16px;}
	.st11{fill:#A09782;}
	.st12{opacity:0.72;fill:#FFFFFF;enable-background:new    ;}
	.st13{fill:#AAA8A5;stroke:#706B64;stroke-width:0.5;stroke-miterlimit:10;}
	.st14{fill:#1E41C1;}
	.st15{fill:#50EFD0;fill-opacity:0;}
	.st16{fill:none;stroke:#50EFD0;stroke-miterlimit:10;}
	.st17{fill:none;stroke:#1E41C1;stroke-miterlimit:10;}
	.st18{opacity:0.22;fill:#50EFD0;enable-background:new    ;}
</style>
<g id="iamg_image_library_icon">
	<rect y="2" class="st0" width="42" height="25.4"/>
	<g>
		<circle class="st1" cx="22.6" cy="10.8" r="7.3"/>
		<circle class="st2" cx="22.6" cy="10.8" r="5.1"/>
		<path class="st3" d="M27.4,10l-7.8,13.5c-0.9,1.5,0.2,3.5,2,3.5h15.6c1.8,0,2.9-1.9,2-3.5L31.4,10C30.5,8.5,28.3,8.5,27.4,10z"/>
		<path class="st4" d="M14.1,3.2L2.3,23.5C1.4,25,2.5,27,4.3,27h23.5c1.8,0,2.9-1.9,2-3.5L18.1,3.2C17.2,1.6,15,1.6,14.1,3.2z"/>
	</g>
</g>
<g id="iamg_video_library_icon">
	<path class="st4" d="M72.3,27H51.9c-1.1,0-1.9-0.9-1.9-1.9v-17c0-1.1,0.9-1.9,1.9-1.9h20.4c1.1,0,1.9,0.9,1.9,1.9v17
		C74.2,26.1,73.3,27,72.3,27z"/>
	<path class="st3" d="M78.8,8.4l-11.2,6.5c-1.3,0.7-1.3,2.6,0,3.4l11.2,6.5c1.3,0.7,2.9-0.2,2.9-1.7v-13C81.7,8.6,80.1,7.7,78.8,8.4
		z"/>
	<circle class="st1" cx="65.9" cy="7" r="5"/>
	<circle class="st2" cx="57.1" cy="8.1" r="3.9"/>
</g>
<g id="iamg_included_images_icon">
	<rect x="75" y="40.6" class="st0" width="42.8" height="28"/>
	<path class="st5" d="M110.8,66.2H81.1c-1.7,0-3.1-1.4-3.1-3.1v-19c0-1.7,1.4-3.1,3.1-3.1h29.7c1.7,0,3.1,1.4,3.1,3.1v19
		C113.9,64.8,112.5,66.2,110.8,66.2z"/>
	<path class="st6" d="M114,68.6H91.5c-1.3,0-2.3-1-2.3-2.3V51.9c0-1.3,1-2.3,2.3-2.3H114c1.3,0,2.3,1,2.3,2.3v14.4
		C116.3,67.5,115.3,68.6,114,68.6z"/>
	<path class="st7" d="M102.5,59.5H86.4c-0.9,0-1.7-0.7-1.7-1.7V47.6c0-0.9,0.7-1.7,1.7-1.7h16.1c0.9,0,1.7,0.7,1.7,1.7v10.3
		C104.2,58.8,103.4,59.5,102.5,59.5z"/>
	<text id="iamg_num_pictures" transform="matrix(1 0 0 1 107.4014 67.0762)" class="st8 st9 st10">0</text>
</g>
<g id="iamg_included_images_clear_icon">
	<rect x="121.4" y="41" class="st0" width="16.2" height="28"/>
	<path class="st11" d="M135.8,42h-4v-0.1c0-0.7-0.6-1.3-1.3-1.3h-1.3c-0.7,0-1.3,0.6-1.3,1.3V42h-4c-0.9,0-1.7,0.8-1.7,1.7v0.6
		c0,0.9,0.8,1.7,1.7,1.7h12c0.9,0,1.7-0.8,1.7-1.7v-0.6C137.5,42.8,136.7,42,135.8,42z"/>
	<g>
		<path class="st11" d="M131.8,53.6v-4.4c0-1-0.7-2-1.7-2.1c-1.2-0.2-2.3,0.8-2.3,2v4.5c0,1.1,0.9,2,2,2h0.1
			C130.9,55.6,131.8,54.7,131.8,53.6z"/>
		<path class="st11" d="M137.5,66.6V49.1c0-1.1-0.9-2-2-2s-2,0.9-2,2v16.1h-0.4l0,0h-5.3l0,0H126V49.1c0-1.1-0.9-2-2-2s-2,0.9-2,2
			v17.5v0.1v0.1v0.6c0,0.8,0.8,1.6,1.7,1.6h12.1c0.9,0,1.7-0.8,1.7-1.6v-0.6V66.6z"/>
	</g>
</g>
<g id="iamg_included_one_image_clear_icon">
	<circle class="st12" cx="154.4" cy="55" r="15"/>
	<path class="st13" d="M157.3,55l6.1-6.1c0.8-0.8,0.8-2,0-2.8s-2-0.8-2.8,0l-6.1,6.1l-6.1-6.1c-0.8-0.8-2-0.8-2.8,0s-0.8,2,0,2.8
		l6.1,6.1l-6.1,6.1c-0.8,0.8-0.8,2,0,2.8c0.4,0.4,0.9,0.6,1.4,0.6s1-0.2,1.4-0.6l6.1-6.1l6.1,6.1c0.4,0.4,0.9,0.6,1.4,0.6
		s1-0.2,1.4-0.6c0.8-0.8,0.8-2,0-2.8L157.3,55z"/>
</g>
<g id="iamg_create_gallery_icon">
	<path class="st5" d="M68.2,40.8H34.7c-0.1,0-0.3,0-0.4,0c-0.5,0-0.9,0-1.4,0c-14,0-25.4,11.4-25.4,25.4s11.4,25.4,25.4,25.4
		s25.4-11.4,25.4-25.4h9.9c1.5,0,2.8-1.3,2.8-2.8V43.6C71,42.1,69.8,40.8,68.2,40.8z"/>
	<circle class="st6" cx="33.2" cy="66.7" r="18.6"/>
	<circle class="st6" cx="33.2" cy="66.2" r="18.6"/>
	<path class="st14" d="M25,56.6v19.2c0,1.2,1.3,2,2.4,1.4l16.7-9.6c1.1-0.6,1.1-2.1,0-2.8l-16.7-9.6C26.4,54.6,25,55.4,25,56.6z"/>
</g>
<g id="iamg_back_icon">
	<path class="st5" d="M5.3,100.6v19.8c0,1.5,1.3,2.8,2.8,2.8H18c0,14,11.4,25.4,25.4,25.4s25.4-11.4,25.4-25.4S57.4,97.8,43.4,97.8
		c-0.5,0-0.9,0-1.4,0c-0.1,0-0.3,0-0.4,0H8.1C6.5,97.8,5.3,99.1,5.3,100.6z"/>
	<circle class="st6" cx="43.1" cy="123.7" r="18.6"/>
	<circle class="st6" cx="43.1" cy="123.2" r="18.6"/>
	<path class="st14" d="M37.9,110.1c0.5-0.5,1-1,1.6-1.2c1.2-0.3,2.4,0.5,2.8,1.6c0.4,1,0.1,2-0.7,2.7c-2.3,2.4-4.6,4.9-6.9,7.3
		c7.4,0,14.7,0,22.1,0c1.5,0,2.6,1.6,2.2,3c-0.2,1.2-1.3,2.1-2.5,2c-7.2,0-14.5,0-21.8,0c2.3,2.5,4.6,4.8,6.9,7.3
		c0.6,0.6,1,1.5,0.8,2.3c-0.1,1.3-1.5,2.4-2.9,2.1c-0.7-0.1-1.1-0.6-1.6-1.1c-3.6-3.8-7.2-7.5-10.7-11.3c-1-1-1-2.8,0.1-3.7
		C30.9,117.5,34.4,113.8,37.9,110.1z"/>
</g>
<g id="iamg_save_pres_icon">
	<path class="st5" d="M115.5,121.4c30.4,0,55-17.9,55-40h-110C60.5,103.5,85.2,121.4,115.5,121.4z"/>
	<ellipse class="st6" cx="115.5" cy="101.1" rx="37.3" ry="17.7"/>
	<path class="st14" d="M126.6,88c-1.3-0.7-2.9-0.3-3.6,1l-10.4,17.8l-4.7-8.3c-0.7-1.3-2.3-1.7-3.6-1c-1.3,0.7-1.7,2.3-1,3.6l7,12.4
		c0,0,0,0,0,0.1c0.1,0.1,0.1,0.3,0.3,0.4c0,0,0,0.1,0.1,0.1c0.1,0.1,0.3,0.3,0.4,0.4l0,0c0.1,0.1,0.3,0.1,0.4,0.1
		c0.3,0.1,0.6,0.1,0.9,0.1l0,0l0,0c0.3,0,0.6,0,0.9-0.1c0.1,0,0.3-0.1,0.6-0.1l0,0c0.1-0.1,0.3-0.3,0.4-0.4l0.1-0.1
		c0.1-0.1,0.3-0.3,0.3-0.4c0,0,0,0,0-0.1l12.8-21.9C128.4,90.4,127.9,88.7,126.6,88z"/>
</g>
<g id="iamg_fixed_behave_icon">
	<path class="st5" d="M57.1,206.6H10.6c-2,0-3.6-1.6-3.6-3.6v-18.9c0-2,1.6-3.6,3.6-3.6h46.5c2,0,3.6,1.6,3.6,3.6V203
		C60.7,205,59.1,206.6,57.1,206.6z"/>
	<rect x="20.4" y="185.3" class="st6" width="27" height="16.5"/>
</g>
<g id="iamg_adaptive_behave_icon">
	<path class="st5" d="M118.7,206.6H72.2c-2,0-3.6-1.6-3.6-3.6v-18.9c0-2,1.6-3.6,3.6-3.6h46.5c2,0,3.6,1.6,3.6,3.6V203
		C122.2,205,120.6,206.6,118.7,206.6z"/>
	<rect x="70.8" y="185.3" class="st6" width="49.2" height="16.5"/>
	<path class="st14" d="M77.1,189.6c0.2-0.2,0.3-0.3,0.5-0.4c0.4-0.1,0.7,0.2,0.9,0.5c0.1,0.3,0,0.6-0.2,0.8
		c-0.7,0.7-1.4,1.5-2.1,2.2c2.3,0,4.5,0,6.8,0c0.5,0,0.8,0.5,0.7,0.9c-0.1,0.4-0.4,0.6-0.8,0.6c-2.2,0-4.4,0-6.7,0
		c0.7,0.8,1.4,1.5,2.1,2.2c0.2,0.2,0.3,0.5,0.2,0.7c0,0.4-0.5,0.7-0.9,0.6c-0.2,0-0.3-0.2-0.5-0.3c-1.1-1.2-2.2-2.3-3.3-3.5
		c-0.3-0.3-0.3-0.9,0-1.1C74.9,191.9,76,190.7,77.1,189.6z"/>
	<path class="st14" d="M117.3,193c0.3,0.3,0.3,0.8,0,1.1c-1.1,1.2-2.2,2.3-3.3,3.5c-0.2,0.2-0.3,0.3-0.5,0.3
		c-0.4,0.1-0.9-0.2-0.9-0.6c-0.1-0.2,0.1-0.5,0.2-0.7c0.7-0.8,1.4-1.5,2.1-2.2c-2.2,0-4.5,0-6.7,0c-0.4,0-0.7-0.2-0.8-0.6
		c-0.1-0.4,0.2-0.9,0.7-0.9c2.3,0,4.5,0,6.8,0c-0.7-0.7-1.4-1.5-2.1-2.2c-0.2-0.2-0.3-0.5-0.2-0.8c0.1-0.3,0.5-0.6,0.9-0.5
		c0.2,0.1,0.3,0.2,0.5,0.4C115.1,190.7,116.2,191.9,117.3,193z"/>
</g>
<g id="iamg_full_behave_icon">
	<path class="st5" d="M178,206.6h-46.5c-2,0-3.6-1.6-3.6-3.6v-18.9c0-2,1.6-3.6,3.6-3.6H178c2,0,3.6,1.6,3.6,3.6V203
		C181.6,205,180,206.6,178,206.6z"/>
	<rect x="130.1" y="181.8" class="st6" width="49.2" height="23.5"/>
	<g>
		<path class="st14" d="M137.6,183.7c0.2,0,0.4,0,0.6,0.1c0.3,0.2,0.4,0.6,0.3,1c-0.1,0.3-0.4,0.5-0.7,0.4c-1,0-2.1,0.1-3.1,0.1
			c1.6,1.6,3.2,3.2,4.8,4.8c0.3,0.3,0.2,0.9-0.2,1.1c-0.3,0.2-0.7,0.2-1-0.1c-1.6-1.6-3.1-3.1-4.7-4.7c0,1,0,2-0.1,3.1
			c0,0.3-0.1,0.5-0.3,0.7c-0.3,0.3-0.8,0.2-1.1-0.2c-0.1-0.2-0.1-0.4-0.1-0.6c0-1.6,0.1-3.2,0.1-4.8c0-0.4,0.4-0.8,0.8-0.8
			C134.5,183.8,136.1,183.8,137.6,183.7z"/>
		<path class="st14" d="M176.8,183.8c0.4,0,0.8,0.3,0.8,0.8c0.1,1.6,0.1,3.2,0.1,4.8c0,0.2,0,0.4-0.1,0.6c-0.2,0.4-0.8,0.4-1.1,0.2
			c-0.2-0.1-0.3-0.4-0.3-0.7c0-1,0-2-0.1-3.1c-1.6,1.6-3.2,3.2-4.7,4.7c-0.2,0.3-0.7,0.3-1,0.1c-0.4-0.2-0.5-0.8-0.2-1.1
			c1.6-1.6,3.2-3.2,4.8-4.8c-1,0-2.1-0.1-3.1-0.1c-0.3,0-0.6-0.1-0.7-0.4c-0.2-0.3-0.1-0.8,0.3-1c0.2-0.1,0.4-0.1,0.6-0.1
			C173.7,183.8,175.2,183.8,176.8,183.8z"/>
		<path class="st14" d="M132.9,203.2c-0.4,0-0.8-0.3-0.8-0.8c-0.1-1.6-0.1-3.2-0.1-4.8c0-0.2,0-0.4,0.1-0.6c0.2-0.4,0.8-0.4,1.1-0.2
			c0.2,0.1,0.3,0.4,0.3,0.7c0,1,0,2,0.1,3.1c1.6-1.6,3.2-3.2,4.7-4.7c0.2-0.3,0.7-0.3,1-0.1c0.4,0.2,0.5,0.8,0.2,1.1
			c-1.6,1.6-3.2,3.2-4.8,4.8c1,0,2.1,0.1,3.1,0.1c0.3,0,0.6,0.1,0.7,0.4c0.2,0.3,0.1,0.8-0.3,1c-0.2,0.1-0.4,0.1-0.6,0.1
			C136.1,203.3,134.5,203.2,132.9,203.2z"/>
		<path class="st14" d="M172.1,203.3c-0.2,0-0.4,0-0.6-0.1c-0.3-0.2-0.4-0.6-0.3-1c0.1-0.3,0.4-0.5,0.7-0.4c1,0,2.1-0.1,3.1-0.1
			c-1.6-1.6-3.2-3.2-4.8-4.8c-0.3-0.3-0.2-0.9,0.2-1.1c0.3-0.2,0.7-0.2,1,0.1c1.6,1.6,3.1,3.1,4.7,4.7c0-1,0-2,0.1-3.1
			c0-0.3,0.1-0.5,0.3-0.7c0.3-0.3,0.8-0.2,1.1,0.2c0.1,0.2,0.1,0.4,0.1,0.6c0,1.6-0.1,3.2-0.1,4.8c0,0.4-0.4,0.8-0.8,0.8
			C175.2,203.2,173.7,203.3,172.1,203.3z"/>
	</g>
</g>
<g id="iamg_behave_icon">
	<g id="adaptive">
		<path class="st5" d="M56,236.7H9.5c-2,0-3.6-1.6-3.6-3.6v-18.9c0-2,1.6-3.6,3.6-3.6H56c2,0,3.6,1.6,3.6,3.6v18.9
			C59.6,235.1,58,236.7,56,236.7z"/>
		<rect x="8.1" y="215.5" class="st6" width="49.2" height="16.5"/>
		<path class="st14" d="M14.4,219.8c0.2-0.2,0.3-0.3,0.5-0.4c0.4-0.1,0.7,0.2,0.9,0.5c0.1,0.3,0,0.6-0.2,0.8
			c-0.7,0.7-1.4,1.5-2.1,2.2c2.3,0,4.5,0,6.8,0c0.5,0,0.8,0.5,0.7,0.9c-0.1,0.4-0.4,0.6-0.8,0.6c-2.2,0-4.4,0-6.7,0
			c0.7,0.8,1.4,1.5,2.1,2.2c0.2,0.2,0.3,0.5,0.2,0.7c0,0.4-0.5,0.7-0.9,0.6c-0.2,0-0.3-0.2-0.5-0.3c-1.1-1.2-2.2-2.3-3.3-3.5
			c-0.3-0.3-0.3-0.9,0-1.1C12.3,222,13.3,220.9,14.4,219.8z"/>
		<path class="st14" d="M54.6,223.1c0.3,0.3,0.3,0.8,0,1.1c-1.1,1.2-2.2,2.3-3.3,3.5c-0.2,0.2-0.3,0.3-0.5,0.3
			c-0.4,0.1-0.9-0.2-0.9-0.6c-0.1-0.2,0.1-0.5,0.2-0.7c0.7-0.8,1.4-1.5,2.1-2.2c-2.2,0-4.5,0-6.7,0c-0.4,0-0.7-0.2-0.8-0.6
			c-0.1-0.4,0.2-0.9,0.7-0.9c2.3,0,4.5,0,6.8,0c-0.7-0.7-1.4-1.5-2.1-2.2c-0.2-0.2-0.3-0.5-0.2-0.8s0.5-0.6,0.9-0.5
			c0.2,0.1,0.3,0.2,0.5,0.4C52.4,220.9,53.5,222,54.6,223.1z"/>
	</g>
	<g id="full">
		<path class="st5" d="M56,236.7H9.5c-2,0-3.6-1.6-3.6-3.6v-18.9c0-2,1.6-3.6,3.6-3.6H56c2,0,3.6,1.6,3.6,3.6v18.9
			C59.6,235.1,58,236.7,56,236.7z"/>
		<rect x="8.1" y="212" class="st6" width="49.2" height="23.5"/>
		<g>
			<path class="st14" d="M15.6,213.9c0.2,0,0.4,0,0.6,0.1c0.3,0.2,0.4,0.6,0.3,1c-0.1,0.3-0.4,0.5-0.7,0.4c-1,0-2.1,0.1-3.1,0.1
				c1.6,1.6,3.2,3.2,4.8,4.8c0.3,0.3,0.2,0.9-0.2,1.1c-0.3,0.2-0.7,0.2-1-0.1c-1.6-1.6-3.1-3.1-4.7-4.7c0,1,0,2-0.1,3.1
				c0,0.3-0.1,0.5-0.3,0.7c-0.3,0.3-0.8,0.2-1.1-0.2c-0.1-0.2-0.1-0.4-0.1-0.6c0-1.6,0.1-3.2,0.1-4.8c0-0.4,0.4-0.8,0.8-0.8
				C12.5,214,14.1,213.9,15.6,213.9z"/>
			<path class="st14" d="M54.8,214c0.4,0,0.8,0.3,0.8,0.8c0.1,1.6,0.1,3.2,0.1,4.8c0,0.2,0,0.4-0.1,0.6c-0.2,0.4-0.8,0.4-1.1,0.2
				c-0.2-0.1-0.3-0.4-0.3-0.7c0-1,0-2-0.1-3.1c-1.6,1.6-3.2,3.2-4.7,4.7c-0.2,0.3-0.7,0.3-1,0.1c-0.4-0.2-0.5-0.8-0.2-1.1
				c1.6-1.6,3.2-3.2,4.8-4.8c-1,0-2.1-0.1-3.1-0.1c-0.3,0-0.6-0.1-0.7-0.4c-0.2-0.3-0.1-0.8,0.3-1c0.2-0.1,0.4-0.1,0.6-0.1
				C51.7,213.9,53.2,214,54.8,214z"/>
			<path class="st14" d="M11,233.4c-0.4,0-0.8-0.3-0.8-0.8c-0.1-1.6-0.1-3.2-0.1-4.8c0-0.2,0-0.4,0.1-0.6c0.2-0.4,0.8-0.4,1.1-0.2
				c0.2,0.1,0.3,0.4,0.3,0.7c0,1,0,2,0.1,3.1c1.6-1.6,3.2-3.2,4.7-4.7c0.2-0.3,0.7-0.3,1-0.1c0.4,0.2,0.5,0.8,0.2,1.1
				c-1.6,1.6-3.2,3.2-4.8,4.8c1,0,2.1,0.1,3.1,0.1c0.3,0,0.6,0.1,0.7,0.4c0.2,0.3,0.1,0.8-0.3,1c-0.2,0.1-0.4,0.1-0.6,0.1
				C14.1,233.4,12.5,233.4,11,233.4z"/>
			<path class="st14" d="M50.1,233.5c-0.2,0-0.4,0-0.6-0.1c-0.3-0.2-0.4-0.6-0.3-1c0.1-0.3,0.4-0.5,0.7-0.4c1,0,2.1-0.1,3.1-0.1
				c-1.6-1.6-3.2-3.2-4.8-4.8c-0.3-0.3-0.2-0.9,0.2-1.1c0.3-0.2,0.7-0.2,1,0.1c1.6,1.6,3.1,3.1,4.7,4.7c0-1,0-2,0.1-3.1
				c0-0.3,0.1-0.5,0.3-0.7c0.3-0.3,0.8-0.2,1.1,0.2c0.1,0.2,0.1,0.4,0.1,0.6c0,1.6-0.1,3.2-0.1,4.8c0,0.4-0.4,0.8-0.8,0.8
				C53.2,233.4,51.7,233.4,50.1,233.5z"/>
		</g>
	</g>
	<g id="fixed">
		<path class="st5" d="M56,236.7H9.5c-2,0-3.6-1.6-3.6-3.6v-18.9c0-2,1.6-3.6,3.6-3.6H56c2,0,3.6,1.6,3.6,3.6v18.9
			C59.6,235.1,58,236.7,56,236.7z"/>
		<rect x="19.2" y="215.5" class="st6" width="27" height="16.5"/>
	</g>
</g>
<g id="iamg_width_head">
	<path class="st15" d="M229,7.6v16.5c0,1.3-1.1,2.4-2.4,2.4h-25.2c-1.3,0-2.4-1.1-2.4-2.4V7.6c0-1.3,1.1-2.4,2.4-2.4h25.2
		C227.9,5.2,229,6.3,229,7.6z"/>
	<path class="st16" d="M229,7.6v16.5c0,1.3-1.1,2.4-2.4,2.4h-25.2c-1.3,0-2.4-1.1-2.4-2.4V7.6c0-1.3,1.1-2.4,2.4-2.4h25.2
		C227.9,5.2,229,6.3,229,7.6z"/>
	<rect x="204.5" y="13" class="st6" width="19.1" height="5.8"/>
	<path class="st14" d="M213.4,5.6c0.2-0.3,0.7-0.3,1,0c1,1,2.1,2,3.1,2.9c0.1,0.1,0.3,0.2,0.3,0.4c0.1,0.4-0.2,0.8-0.6,0.8
		c-0.2,0.1-0.5-0.1-0.6-0.2c-0.7-0.6-1.3-1.3-2-1.9c0,2,0,4,0,6c0,0.3-0.2,0.6-0.5,0.7c-0.4,0.1-0.8-0.2-0.8-0.6c0-2,0-4,0-6.1
		c-0.7,0.6-1.3,1.3-2,1.9c-0.2,0.2-0.5,0.3-0.7,0.2c-0.3-0.1-0.5-0.4-0.4-0.8c0.1-0.2,0.2-0.3,0.3-0.4
		C211.4,7.6,212.4,6.6,213.4,5.6z"/>
	<path class="st14" d="M210.4,23.2c-0.1-0.1-0.3-0.3-0.3-0.4c-0.1-0.3,0.1-0.7,0.4-0.8c0.3-0.1,0.5,0,0.7,0.2c0.7,0.6,1.3,1.3,2,1.9
		c0-2,0-4,0-6.1c0-0.4,0.4-0.7,0.8-0.6c0.3,0.1,0.6,0.4,0.5,0.7c0,2,0,4,0,6c0.7-0.6,1.3-1.3,2-1.9c0.2-0.2,0.4-0.3,0.6-0.2
		c0.4,0,0.7,0.4,0.6,0.8c0,0.2-0.2,0.3-0.3,0.4c-1,1-2.1,2-3.1,2.9c-0.3,0.3-0.8,0.3-1,0C212.4,25.2,211.4,24.2,210.4,23.2z"/>
</g>
<g id="iamg_height_toggle_percent">
	<path class="st5" d="M218.7,32.2v16.2c0,1.1-0.9,1.9-1.9,1.9h-16.2c-1.1,0-1.9-0.9-1.9-1.9V32.2c0-1.1,0.9-1.9,1.9-1.9h16.2
		C217.8,30.3,218.7,31.2,218.7,32.2z"/>
	<g>
		<path class="st14" d="M204.2,39.1c-0.4-0.4-0.6-1-0.6-2s0.2-1.7,0.6-2c0.4-0.4,0.9-0.6,1.6-0.6c0.6,0,1.1,0.2,1.6,0.6
			c0.4,0.4,0.6,1.1,0.6,2c0,1-0.2,1.6-0.6,2c-0.4,0.4-0.9,0.6-1.6,0.6C205.1,39.6,204.6,39.5,204.2,39.1z M206.9,37.1
			c0-0.5-0.1-0.9-0.2-1.3c-0.2-0.3-0.5-0.5-1-0.5s-0.8,0.2-0.9,0.5c-0.1,0.3-0.2,0.7-0.2,1.3c0,0.5,0.1,0.9,0.2,1.2
			c0.1,0.3,0.4,0.5,0.9,0.5C206.5,38.8,206.9,38.2,206.9,37.1z M205.2,45.8c-0.1,0-0.1-0.1-0.1-0.1c0-0.1,0-0.1,0.1-0.2l6-10.8
			c0.1-0.1,0.1-0.2,0.2-0.2c0.1-0.1,0.2-0.1,0.4-0.1h0.1c0.1,0,0.2,0,0.3,0s0.1,0.1,0.1,0.1s0,0,0,0.1v0.1l-6,10.8
			c-0.1,0.2-0.3,0.3-0.6,0.3h-0.1C205.4,45.9,205.3,45.8,205.2,45.8z M210.1,45.3c-0.4-0.4-0.6-1-0.6-2s0.2-1.7,0.6-2
			c0.4-0.4,0.9-0.6,1.6-0.6c0.6,0,1.1,0.2,1.6,0.6c0.4,0.4,0.6,1.1,0.6,2c0,1-0.2,1.6-0.6,2c-0.4,0.4-0.9,0.6-1.5,0.6
			C211,45.8,210.5,45.6,210.1,45.3z M212.8,43.2c0-0.5-0.1-0.9-0.2-1.3s-0.5-0.5-0.9-0.5c-0.5,0-0.8,0.2-0.9,0.5
			c-0.1,0.3-0.2,0.8-0.2,1.3s0.1,0.9,0.2,1.2s0.5,0.5,0.9,0.5C212.4,44.9,212.8,44.4,212.8,43.2z"/>
	</g>
</g>
<g id="iamg_height_toggle_pixel">
	<path class="st5" d="M218.7,57v16.2c0,1.1-0.9,1.9-1.9,1.9h-16.2c-1.1,0-1.9-0.9-1.9-1.9V57c0-1.1,0.9-1.9,1.9-1.9h16.2
		C217.8,55.1,218.7,56,218.7,57z"/>
	<g>
		<path class="st14" d="M201.8,70.5c-0.1-0.1-0.1-0.1-0.1-0.3V59.8c0-0.2,0-0.3,0.1-0.4c0.1-0.1,0.2-0.1,0.4-0.1h3.2
			c0.9,0,1.8,0.2,2.5,0.7s1.1,1.3,1.1,2.5c0,0.9-0.2,1.6-0.6,2.1c-0.4,0.5-0.9,0.8-1.4,1s-1,0.2-1.4,0.2H203v4.5
			c0,0.1-0.1,0.2-0.2,0.3c-0.1,0.1-0.3,0.1-0.5,0.1h-0.1C202,70.6,201.9,70.5,201.8,70.5z M205.5,64.5c0.3,0,0.6-0.1,0.8-0.2
			c0.3-0.1,0.5-0.3,0.8-0.6c0.2-0.3,0.3-0.7,0.3-1.3c0-0.7-0.2-1.2-0.6-1.5c-0.4-0.3-0.9-0.4-1.5-0.4H203v4H205.5z"/>
		<path class="st14" d="M209.9,70.5c-0.1,0-0.2-0.1-0.2-0.2s0-0.2,0.1-0.3l2.6-3.8l-2.4-3.6c-0.1-0.1-0.1-0.2-0.1-0.3
			s0.1-0.2,0.2-0.2s0.3-0.1,0.6-0.1h0.2c0.2,0,0.3,0,0.4,0c0.1,0,0.2,0.1,0.3,0.2l1.5,2.3c0.1,0.1,0.2,0.3,0.3,0.6
			c0,0,0.1-0.1,0.1-0.2c0.1-0.1,0.1-0.2,0.2-0.4l1.5-2.3c0.1-0.1,0.3-0.2,0.7-0.2h0.1c0.2,0,0.4,0,0.5,0.1c0.1,0,0.2,0.1,0.2,0.2
			c0,0.1,0,0.2-0.1,0.3l-2.4,3.5l2.6,3.8c0.1,0.1,0.1,0.2,0.1,0.3c0,0.1-0.1,0.2-0.2,0.2c-0.1,0-0.3,0.1-0.6,0.1H216
			c-0.2,0-0.3,0-0.4,0c-0.1,0-0.2-0.1-0.2-0.2l-1.7-2.5c-0.1-0.1-0.2-0.3-0.2-0.4c-0.1-0.1-0.1-0.2-0.1-0.2s0,0.1-0.1,0.2
			s-0.1,0.2-0.2,0.4l-1.7,2.6c-0.1,0.2-0.3,0.2-0.7,0.2h-0.1C210.1,70.6,210,70.5,209.9,70.5z"/>
	</g>
</g>
<g id="iamg_height_use">
	<path class="st5" d="M243,81.9v7.8c0,1-0.8,1.9-1.9,1.9h-29.7c-1,0-1.9-0.8-1.9-1.9v-7.8c0-1,0.8-1.9,1.9-1.9h29.7
		C242.1,80,243,80.9,243,81.9z"/>
	<g>
		<path class="st14" d="M212.3,88v-4.9c0-0.1,0.1-0.2,0.3-0.2h0.1c0.2,0,0.3,0.1,0.3,0.2v2.1h2.7v-2.1c0-0.1,0.1-0.2,0.3-0.2h0.1
			c0.2,0,0.3,0.1,0.3,0.2V88c0,0.1,0,0.1-0.1,0.1c0,0-0.1,0-0.2,0H216c-0.1,0-0.2,0-0.2,0l-0.1-0.1v-2.2H213V88
			c0,0.1-0.1,0.2-0.3,0.2h-0.1C212.4,88.2,212.3,88.1,212.3,88z"/>
		<path class="st14" d="M217.8,87.8c-0.3-0.3-0.4-0.8-0.4-1.5s0.1-1.1,0.4-1.5c0.3-0.3,0.7-0.5,1.3-0.5c0.5,0,0.9,0.2,1.1,0.5
			c0.3,0.3,0.4,0.8,0.4,1.4v0.1l-0.1,0.1l-0.1,0.1h-2.3c0,0.4,0.1,0.7,0.3,0.9c0.2,0.2,0.5,0.3,0.8,0.3c0.2,0,0.4,0,0.5-0.1
			s0.3-0.1,0.4-0.2c0,0,0,0,0.1,0c0,0,0,0,0.1,0c0,0,0.1,0,0.1,0.1c0,0,0.1,0.1,0.1,0.2s0,0.1,0,0.1c0,0.1-0.1,0.1-0.2,0.2
			c-0.1,0.1-0.3,0.1-0.5,0.2s-0.4,0.1-0.7,0.1C218.6,88.2,218.1,88.1,217.8,87.8z M220,86c0-0.8-0.3-1.2-0.9-1.2c-0.6,0-1,0.4-1,1.2
			H220z"/>
		<path class="st14" d="M221.6,83.2v-0.4c0-0.1,0.1-0.2,0.3-0.2h0.1c0.2,0,0.3,0.1,0.3,0.2v0.4c0,0.1-0.1,0.2-0.3,0.2h-0.1
			C221.7,83.4,221.6,83.4,221.6,83.2z M221.6,88v-3.6c0-0.1,0.1-0.2,0.3-0.2l0,0c0.2,0,0.3,0.1,0.3,0.2V88c0,0.1-0.1,0.2-0.3,0.2
			l0,0C221.7,88.2,221.6,88.1,221.6,88z"/>
		<path class="st14" d="M223.7,89.5c-0.3-0.1-0.4-0.4-0.4-0.7c0-0.2,0.1-0.4,0.2-0.6c0.1-0.2,0.3-0.3,0.5-0.4l0,0
			c-0.1-0.1-0.2-0.2-0.2-0.3c-0.1-0.1-0.1-0.2-0.1-0.3c0-0.3,0.1-0.6,0.4-0.8c-0.2-0.1-0.4-0.2-0.5-0.4c-0.1-0.2-0.2-0.4-0.2-0.6
			s0.1-0.4,0.2-0.6c0.1-0.2,0.3-0.3,0.5-0.4s0.5-0.2,0.8-0.2c0.2,0,0.3,0,0.4,0h1.3c0.1,0,0.1,0,0.1,0.1c0,0,0,0.1,0,0.2v0.1
			c0,0.1,0,0.1,0,0.2l-0.1,0.1c-0.2,0-0.4,0-0.5,0l0,0c0.1,0.1,0.1,0.2,0.1,0.3c0,0.1,0,0.2,0,0.3c0,0.2-0.1,0.4-0.2,0.6
			c-0.1,0.2-0.3,0.3-0.5,0.4s-0.5,0.2-0.8,0.2c-0.2,0-0.4,0.1-0.5,0.1c-0.1,0.1-0.2,0.2-0.2,0.4c0,0.1,0,0.2,0.1,0.3
			c0.1,0.1,0.2,0.1,0.3,0.1s0.3,0.1,0.5,0.1h0.2c0.2,0,0.4,0.1,0.6,0.1c0.2,0.1,0.3,0.1,0.4,0.3c0.1,0.1,0.2,0.3,0.2,0.5
			c0,0.4-0.1,0.6-0.4,0.8c-0.3,0.2-0.7,0.3-1.3,0.3C224.3,89.8,223.9,89.7,223.7,89.5z M225.6,89.1c0.2-0.1,0.2-0.2,0.2-0.4
			c0-0.1,0-0.2-0.1-0.3c-0.1-0.1-0.2-0.1-0.3-0.1s-0.3-0.1-0.5-0.1c-0.1,0-0.3,0-0.4,0c-0.1,0-0.2,0-0.3-0.1
			c-0.3,0.1-0.5,0.3-0.5,0.6c0,0.4,0.4,0.5,1.1,0.5C225.2,89.3,225.5,89.2,225.6,89.1z M225.5,86c0.2-0.1,0.2-0.3,0.2-0.5
			c0-0.5-0.3-0.7-0.9-0.7c-0.6,0-0.9,0.2-0.9,0.7c0,0.3,0.1,0.4,0.2,0.5c0.2,0.1,0.4,0.2,0.6,0.2C225.1,86.2,225.4,86.2,225.5,86z"
			/>
		<path class="st14" d="M227.6,88v-5.2c0-0.1,0.1-0.2,0.3-0.2l0,0c0.2,0,0.3,0.1,0.3,0.2v2c0.1-0.1,0.3-0.3,0.5-0.4s0.4-0.1,0.6-0.1
			c0.3,0,0.6,0.1,0.8,0.3c0.2,0.2,0.4,0.5,0.4,0.9V88c0,0.1-0.1,0.2-0.3,0.2l0,0c-0.2,0-0.3-0.1-0.3-0.2v-2.5c0-0.2-0.1-0.4-0.2-0.5
			c-0.1-0.1-0.3-0.2-0.6-0.2c-0.2,0-0.3,0-0.4,0.1c-0.1,0.1-0.3,0.2-0.3,0.3s-0.1,0.1-0.1,0.2V88c0,0.1-0.1,0.2-0.3,0.2l0,0
			C227.7,88.2,227.6,88.1,227.6,88z"/>
		<path class="st14" d="M232.2,88c-0.2-0.1-0.3-0.4-0.3-0.8v-2.4h-0.4c-0.1,0-0.1,0-0.1-0.1c0,0,0-0.1,0-0.2v-0.1c0-0.1,0-0.1,0-0.2
			l0.1-0.1h0.4l0.1-0.8c0-0.1,0.1-0.2,0.2-0.2h0.1c0.1,0,0.1,0,0.2,0l0.1,0.1V84h0.6c0.1,0,0.1,0,0.1,0.1c0,0,0,0.1,0,0.2v0.1
			c0,0.1,0,0.1,0,0.2l-0.1,0.1h-0.6V87c0,0.2,0,0.3,0.1,0.4s0.2,0.1,0.3,0.1s0.2,0,0.2,0c0.1,0,0.1,0,0.1,0s0.1,0,0.1,0.1
			s0,0.2,0,0.2c0,0.1-0.2,0.2-0.5,0.2C232.6,88.2,232.4,88.2,232.2,88z"/>
	</g>
	<circle class="st17" cx="238.4" cy="85.8" r="3.3"/>
</g>
<g id="iamg_height_not_use_00000166662459409726870570000002495430583436692608_">
	<path class="st5" d="M243,94.3v7.8c0,1-0.8,1.9-1.9,1.9h-29.7c-1,0-1.9-0.8-1.9-1.9v-7.8c0-1,0.8-1.9,1.9-1.9h29.7
		C242.1,92.4,243,93.2,243,94.3z"/>
	<g>
		<path class="st14" d="M212.3,100.4v-4.9c0-0.1,0.1-0.2,0.3-0.2h0.1c0.2,0,0.3,0.1,0.3,0.2v2.1h2.7v-2.1c0-0.1,0.1-0.2,0.3-0.2h0.1
			c0.2,0,0.3,0.1,0.3,0.2v4.9c0,0.1,0,0.1-0.1,0.1c0,0-0.1,0-0.2,0H216c-0.1,0-0.2,0-0.2,0l-0.1-0.1v-2.2H213v2.2
			c0,0.1-0.1,0.2-0.3,0.2h-0.1C212.4,100.6,212.3,100.5,212.3,100.4z"/>
		<path class="st14" d="M217.8,100.1c-0.3-0.3-0.4-0.8-0.4-1.5s0.1-1.1,0.4-1.5c0.3-0.3,0.7-0.5,1.3-0.5c0.5,0,0.9,0.2,1.1,0.5
			c0.3,0.3,0.4,0.8,0.4,1.4v0.1l-0.1,0.1l-0.1,0.1h-2.3c0,0.4,0.1,0.7,0.3,0.9c0.2,0.2,0.5,0.3,0.8,0.3c0.2,0,0.4,0,0.5-0.1
			s0.3-0.1,0.4-0.2c0,0,0,0,0.1,0c0,0,0,0,0.1,0c0,0,0.1,0,0.1,0.1c0,0,0.1,0.1,0.1,0.2s0,0.1,0,0.1c0,0.1-0.1,0.1-0.2,0.2
			c-0.1,0.1-0.3,0.1-0.5,0.2s-0.4,0.1-0.7,0.1C218.6,100.6,218.1,100.4,217.8,100.1z M220,98.4c0-0.8-0.3-1.2-0.9-1.2
			c-0.6,0-1,0.4-1,1.2H220z"/>
		<path class="st14" d="M221.6,95.6v-0.4c0-0.1,0.1-0.2,0.3-0.2h0.1c0.2,0,0.3,0.1,0.3,0.2v0.4c0,0.1-0.1,0.2-0.3,0.2h-0.1
			C221.7,95.8,221.6,95.7,221.6,95.6z M221.6,100.4v-3.6c0-0.1,0.1-0.2,0.3-0.2l0,0c0.2,0,0.3,0.1,0.3,0.2v3.6
			c0,0.1-0.1,0.2-0.3,0.2l0,0C221.7,100.6,221.6,100.5,221.6,100.4z"/>
		<path class="st14" d="M223.7,101.9c-0.3-0.1-0.4-0.4-0.4-0.7c0-0.2,0.1-0.4,0.2-0.6c0.1-0.2,0.3-0.3,0.5-0.4l0,0
			c-0.1-0.1-0.2-0.2-0.2-0.3c-0.1-0.1-0.1-0.2-0.1-0.3c0-0.3,0.1-0.6,0.4-0.8c-0.2-0.1-0.4-0.2-0.5-0.4c-0.1-0.2-0.2-0.4-0.2-0.6
			s0.1-0.4,0.2-0.6c0.1-0.2,0.3-0.3,0.5-0.4s0.5-0.2,0.8-0.2c0.2,0,0.3,0,0.4,0h1.3c0.1,0,0.1,0,0.1,0.1c0,0,0,0.1,0,0.2V97
			c0,0.1,0,0.1,0,0.2l-0.1,0.1c-0.2,0-0.4,0-0.5,0l0,0c0.1,0.1,0.1,0.2,0.1,0.3c0,0.1,0,0.2,0,0.3c0,0.2-0.1,0.4-0.2,0.6
			c-0.1,0.2-0.3,0.3-0.5,0.4s-0.5,0.2-0.8,0.2c-0.2,0-0.4,0.1-0.5,0.1c-0.1,0.1-0.2,0.2-0.2,0.4c0,0.1,0,0.2,0.1,0.3
			c0.1,0.1,0.2,0.1,0.3,0.1s0.3,0.1,0.5,0.1h0.2c0.2,0,0.4,0.1,0.6,0.1c0.2,0.1,0.3,0.1,0.4,0.3c0.1,0.1,0.2,0.3,0.2,0.5
			c0,0.4-0.1,0.6-0.4,0.8c-0.3,0.2-0.7,0.3-1.3,0.3C224.3,102.1,223.9,102,223.7,101.9z M225.6,101.5c0.2-0.1,0.2-0.2,0.2-0.4
			c0-0.1,0-0.2-0.1-0.3c-0.1-0.1-0.2-0.1-0.3-0.1s-0.3-0.1-0.5-0.1c-0.1,0-0.3,0-0.4,0c-0.1,0-0.2,0-0.3-0.1
			c-0.3,0.1-0.5,0.3-0.5,0.6c0,0.4,0.4,0.5,1.1,0.5C225.2,101.6,225.5,101.6,225.6,101.5z M225.5,98.4c0.2-0.1,0.2-0.3,0.2-0.5
			c0-0.5-0.3-0.7-0.9-0.7c-0.6,0-0.9,0.2-0.9,0.7c0,0.3,0.1,0.4,0.2,0.5c0.2,0.1,0.4,0.2,0.6,0.2C225.1,98.6,225.4,98.5,225.5,98.4z
			"/>
		<path class="st14" d="M227.6,100.4v-5.2c0-0.1,0.1-0.2,0.3-0.2l0,0c0.2,0,0.3,0.1,0.3,0.2v2c0.1-0.1,0.3-0.3,0.5-0.4
			s0.4-0.1,0.6-0.1c0.3,0,0.6,0.1,0.8,0.3c0.2,0.2,0.4,0.5,0.4,0.9v2.6c0,0.1-0.1,0.2-0.3,0.2l0,0c-0.2,0-0.3-0.1-0.3-0.2V98
			c0-0.2-0.1-0.4-0.2-0.5c-0.1-0.1-0.3-0.2-0.6-0.2c-0.2,0-0.3,0-0.4,0.1c-0.1,0.1-0.3,0.2-0.3,0.3c-0.1,0.1-0.1,0.1-0.1,0.2v2.7
			c0,0.1-0.1,0.2-0.3,0.2l0,0C227.7,100.6,227.6,100.5,227.6,100.4z"/>
		<path class="st14" d="M232.2,100.4c-0.2-0.1-0.3-0.4-0.3-0.8v-2.4h-0.4c-0.1,0-0.1,0-0.1-0.1c0,0,0-0.1,0-0.2v-0.1
			c0-0.1,0-0.1,0-0.2l0.1-0.1h0.4l0.1-0.8c0-0.1,0.1-0.2,0.2-0.2h0.1c0.1,0,0.1,0,0.2,0l0.1,0.1v0.8h0.6c0.1,0,0.1,0,0.1,0.1
			c0,0,0,0.1,0,0.2V97c0,0.1,0,0.1,0,0.2l-0.1,0.1h-0.6v2.3c0,0.2,0,0.3,0.1,0.4s0.2,0.1,0.3,0.1s0.2,0,0.2,0c0.1,0,0.1,0,0.1,0
			s0.1,0,0.1,0.1s0,0.2,0,0.2c0,0.1-0.2,0.2-0.5,0.2C232.6,100.6,232.4,100.5,232.2,100.4z"/>
	</g>
	<circle class="st17" cx="238.4" cy="98.1" r="3.3"/>
	<circle class="st14" cx="238.4" cy="98.1" r="2.4"/>
</g>
<g id="iamg_width_not_use">
	<path class="st5" d="M243,106.9v7.8c0,1-0.8,1.9-1.9,1.9h-29.7c-1,0-1.9-0.8-1.9-1.9v-7.8c0-1,0.8-1.9,1.9-1.9h29.7
		C242.1,105,243,105.9,243,106.9z"/>
	<g>
		<path class="st14" d="M214.4,113.1l-1.3-4.8c0,0,0,0,0-0.1l0,0c0,0,0-0.1,0.1-0.1s0.1,0,0.2,0h0.1c0.1,0,0.1,0,0.2,0
			c0.1,0,0.1,0,0.1,0.1l0.9,3.6c0,0.1,0.1,0.3,0.1,0.6c0,0.1,0,0.1,0,0.1c0.1-0.3,0.1-0.5,0.2-0.7l0.9-3.6c0-0.1,0.1-0.1,0.3-0.1
			h0.1c0.2,0,0.3,0,0.3,0.1l0.9,3.6c0,0.1,0.1,0.2,0.1,0.4c0,0.1,0,0.2,0,0.3c0.1-0.2,0.1-0.5,0.2-0.7l0.9-3.6
			c0-0.1,0.1-0.1,0.3-0.1l0,0c0.2,0,0.3,0,0.3,0.1v0.1l-1.3,4.8c0,0.1-0.1,0.1-0.3,0.1h-0.3c-0.2,0-0.3,0-0.3-0.1l-0.8-3l-0.1-1
			l-0.2,1l-0.8,3c0,0.1-0.1,0.1-0.3,0.1h-0.3C214.5,113.2,214.4,113.2,214.4,113.1z"/>
		<path class="st14" d="M220.1,108.2v-0.4c0-0.1,0.1-0.2,0.3-0.2h0.1c0.2,0,0.3,0.1,0.3,0.2v0.4c0,0.1-0.1,0.2-0.3,0.2h-0.1
			C220.2,108.4,220.1,108.4,220.1,108.2z M220.1,113v-3.6c0-0.1,0.1-0.2,0.3-0.2l0,0c0.2,0,0.3,0.1,0.3,0.2v3.6
			c0,0.1-0.1,0.2-0.3,0.2l0,0C220.2,113.2,220.1,113.1,220.1,113z"/>
		<path class="st14" d="M222.5,113c-0.2-0.2-0.4-0.4-0.5-0.7c-0.1-0.3-0.2-0.6-0.2-1s0.1-0.8,0.2-1.1c0.1-0.3,0.3-0.5,0.5-0.7
			s0.5-0.2,0.8-0.2c0.2,0,0.4,0,0.6,0.1c0.2,0.1,0.3,0.2,0.5,0.3v-1.9c0-0.1,0.1-0.2,0.3-0.2l0,0c0.2,0,0.3,0.1,0.3,0.2v4.3
			c0,0.3,0,0.6,0,0.7s0,0.2,0,0.2c0,0.1,0,0.1-0.1,0.1s-0.2,0-0.3,0s-0.1,0-0.1-0.1s-0.1-0.1-0.1-0.2s0-0.1-0.1-0.3
			c-0.4,0.4-0.7,0.6-1.2,0.6C222.9,113.2,222.7,113.1,222.5,113z M223.9,112.6c0.2-0.1,0.3-0.2,0.5-0.4v-2c-0.3-0.2-0.6-0.3-0.9-0.3
			c-0.3,0-0.6,0.1-0.7,0.4c-0.2,0.2-0.3,0.6-0.3,1c0,0.5,0.1,0.8,0.2,1.1c0.2,0.3,0.4,0.4,0.7,0.4
			C223.5,112.7,223.7,112.7,223.9,112.6z"/>
		<path class="st14" d="M226.7,113c-0.2-0.1-0.3-0.4-0.3-0.8v-2.4H226c-0.1,0-0.1,0-0.1-0.1c0,0,0-0.1,0-0.2v-0.1c0-0.1,0-0.1,0-0.2
			l0.1-0.1h0.4l0.1-0.8c0-0.1,0.1-0.2,0.2-0.2h0.1c0.1,0,0.1,0,0.2,0l0.1,0.1v0.8h0.6c0.1,0,0.1,0,0.1,0.1c0,0,0,0.1,0,0.2v0.1
			c0,0.1,0,0.1,0,0.2l-0.1,0.1H227v2.3c0,0.2,0,0.3,0.1,0.4s0.2,0.1,0.3,0.1s0.2,0,0.2,0c0.1,0,0.1,0,0.1,0s0.1,0,0.1,0.1
			s0,0.2,0,0.2c0,0.1-0.2,0.2-0.5,0.2C227.1,113.2,226.9,113.2,226.7,113z"/>
		<path class="st14" d="M228.8,113v-5.2c0-0.1,0.1-0.2,0.3-0.2l0,0c0.2,0,0.3,0.1,0.3,0.2v2c0.1-0.1,0.3-0.3,0.5-0.4
			s0.4-0.1,0.6-0.1c0.3,0,0.6,0.1,0.8,0.3c0.2,0.2,0.4,0.5,0.4,0.9v2.6c0,0.1-0.1,0.2-0.3,0.2l0,0c-0.2,0-0.3-0.1-0.3-0.2v-2.5
			c0-0.2-0.1-0.4-0.2-0.5c-0.1-0.1-0.3-0.2-0.6-0.2c-0.2,0-0.3,0-0.4,0.1c-0.1,0.1-0.3,0.2-0.3,0.3c-0.1,0.1-0.1,0.1-0.1,0.2v2.7
			c0,0.1-0.1,0.2-0.3,0.2l0,0C228.9,113.2,228.8,113.1,228.8,113z"/>
	</g>
	<circle class="st17" cx="238.4" cy="110.5" r="3.3"/>
	<circle class="st14" cx="238.4" cy="110.5" r="2.4"/>
</g>
<g id="iamg_width_use_00000036210040544384730580000003892557229896173953_">
	<path class="st5" d="M243,119.2v7.8c0,1-0.8,1.9-1.9,1.9h-29.7c-1,0-1.9-0.8-1.9-1.9v-7.8c0-1,0.8-1.9,1.9-1.9h29.7
		C242.1,117.3,243,118.1,243,119.2z"/>
	<g>
		<path class="st14" d="M214.4,125.4l-1.3-4.8c0,0,0,0,0-0.1l0,0c0,0,0-0.1,0.1-0.1s0.1,0,0.2,0h0.1c0.1,0,0.1,0,0.2,0
			c0.1,0,0.1,0,0.1,0.1l0.9,3.6c0,0.1,0.1,0.3,0.1,0.6c0,0.1,0,0.1,0,0.1c0.1-0.3,0.1-0.5,0.2-0.7l0.9-3.6c0-0.1,0.1-0.1,0.3-0.1
			h0.1c0.2,0,0.3,0,0.3,0.1l0.9,3.6c0,0.1,0.1,0.2,0.1,0.4c0,0.1,0,0.2,0,0.3c0.1-0.2,0.1-0.5,0.2-0.7l0.9-3.6
			c0-0.1,0.1-0.1,0.3-0.1l0,0c0.2,0,0.3,0,0.3,0.1v0.1l-1.3,4.8c0,0.1-0.1,0.1-0.3,0.1h-0.3c-0.2,0-0.3,0-0.3-0.1l-0.8-3l-0.1-1
			l-0.2,1l-0.8,3c0,0.1-0.1,0.1-0.3,0.1h-0.3C214.5,125.5,214.4,125.4,214.4,125.4z"/>
		<path class="st14" d="M220.1,120.5v-0.4c0-0.1,0.1-0.2,0.3-0.2h0.1c0.2,0,0.3,0.1,0.3,0.2v0.4c0,0.1-0.1,0.2-0.3,0.2h-0.1
			C220.2,120.7,220.1,120.6,220.1,120.5z M220.1,125.3v-3.6c0-0.1,0.1-0.2,0.3-0.2l0,0c0.2,0,0.3,0.1,0.3,0.2v3.6
			c0,0.1-0.1,0.2-0.3,0.2l0,0C220.2,125.5,220.1,125.4,220.1,125.3z"/>
		<path class="st14" d="M222.5,125.3c-0.2-0.2-0.4-0.4-0.5-0.7c-0.1-0.3-0.2-0.6-0.2-1s0.1-0.8,0.2-1.1c0.1-0.3,0.3-0.5,0.5-0.7
			s0.5-0.2,0.8-0.2c0.2,0,0.4,0,0.6,0.1c0.2,0.1,0.3,0.2,0.5,0.3v-1.9c0-0.1,0.1-0.2,0.3-0.2l0,0c0.2,0,0.3,0.1,0.3,0.2v4.3
			c0,0.3,0,0.6,0,0.7s0,0.2,0,0.2c0,0.1,0,0.1-0.1,0.1s-0.2,0-0.3,0s-0.1,0-0.1-0.1s-0.1-0.1-0.1-0.2s0-0.1-0.1-0.3
			c-0.4,0.4-0.7,0.6-1.2,0.6C222.9,125.5,222.7,125.4,222.5,125.3z M223.9,124.8c0.2-0.1,0.3-0.2,0.5-0.4v-2
			c-0.3-0.2-0.6-0.3-0.9-0.3c-0.3,0-0.6,0.1-0.7,0.4c-0.2,0.2-0.3,0.6-0.3,1c0,0.5,0.1,0.8,0.2,1.1c0.2,0.3,0.4,0.4,0.7,0.4
			C223.5,125,223.7,124.9,223.9,124.8z"/>
		<path class="st14" d="M226.7,125.3c-0.2-0.1-0.3-0.4-0.3-0.8v-2.4H226c-0.1,0-0.1,0-0.1-0.1c0,0,0-0.1,0-0.2v-0.1
			c0-0.1,0-0.1,0-0.2l0.1-0.1h0.4l0.1-0.8c0-0.1,0.1-0.2,0.2-0.2h0.1c0.1,0,0.1,0,0.2,0l0.1,0.1v0.8h0.6c0.1,0,0.1,0,0.1,0.1
			c0,0,0,0.1,0,0.2v0.1c0,0.1,0,0.1,0,0.2l-0.1,0.1H227v2.3c0,0.2,0,0.3,0.1,0.4s0.2,0.1,0.3,0.1s0.2,0,0.2,0c0.1,0,0.1,0,0.1,0
			s0.1,0,0.1,0.1s0,0.2,0,0.2c0,0.1-0.2,0.2-0.5,0.2C227.1,125.5,226.9,125.4,226.7,125.3z"/>
		<path class="st14" d="M228.8,125.3v-5.2c0-0.1,0.1-0.2,0.3-0.2l0,0c0.2,0,0.3,0.1,0.3,0.2v2c0.1-0.1,0.3-0.3,0.5-0.4
			s0.4-0.1,0.6-0.1c0.3,0,0.6,0.1,0.8,0.3c0.2,0.2,0.4,0.5,0.4,0.9v2.6c0,0.1-0.1,0.2-0.3,0.2l0,0c-0.2,0-0.3-0.1-0.3-0.2v-2.5
			c0-0.2-0.1-0.4-0.2-0.5c-0.1-0.1-0.3-0.2-0.6-0.2c-0.2,0-0.3,0-0.4,0.1c-0.1,0.1-0.3,0.2-0.3,0.3c-0.1,0.1-0.1,0.1-0.1,0.2v2.7
			c0,0.1-0.1,0.2-0.3,0.2l0,0C228.9,125.5,228.8,125.4,228.8,125.3z"/>
	</g>
	<circle class="st17" cx="238.4" cy="122.7" r="3.3"/>
</g>
<g id="iamg_fixed_info_icon">
	<path class="st18" d="M57.6,177.6h-48c-1.5,0-2.8-1.3-2.8-2.8v-10.4c0-1.5,1.3-2.8,2.8-2.8h48c1.5,0,2.8,1.3,2.8,2.8v10.4
		C60.4,176.3,59.2,177.6,57.6,177.6z"/>
	<g>
		<path class="st14" d="M22.2,173.2v-6.8c0-0.1,0-0.2,0.1-0.2s0.1-0.1,0.2-0.1h3.3c0.1,0,0.1,0,0.2,0.1s0,0.1,0,0.2v0.2
			c0,0.1,0,0.2,0,0.2s-0.1,0.1-0.2,0.1h-2.7v2.4h2.5c0.1,0,0.1,0,0.2,0.1s0.1,0.1,0.1,0.2v0.2c0,0.1,0,0.2-0.1,0.2s-0.1,0.1-0.2,0.1
			h-2.5v3.1c0,0.2-0.1,0.2-0.4,0.2h-0.1C22.3,173.5,22.2,173.4,22.2,173.2z"/>
		<path class="st14" d="M27.3,166.5v-0.6c0-0.2,0.1-0.2,0.4-0.2h0.1c0.3,0,0.4,0.1,0.4,0.2v0.6c0,0.2-0.1,0.2-0.4,0.2h-0.1
			C27.5,166.7,27.3,166.6,27.3,166.5z M27.4,173.2v-5c0-0.2,0.1-0.2,0.4-0.2l0,0c0.3,0,0.4,0.1,0.4,0.2v5c0,0.2-0.1,0.2-0.4,0.2l0,0
			C27.5,173.5,27.4,173.4,27.4,173.2z"/>
		<path class="st14" d="M29.5,173.4c-0.1,0-0.1-0.1-0.1-0.1s0-0.1,0.1-0.2l1.7-2.4l-1.6-2.3c-0.1-0.1-0.1-0.1-0.1-0.2
			c0-0.1,0-0.1,0.1-0.1s0.2,0,0.4,0h0.1c0.1,0,0.2,0,0.3,0s0.1,0.1,0.2,0.1l1,1.5c0.1,0.1,0.1,0.2,0.2,0.4c0,0,0-0.1,0.1-0.1
			c0.1,0,0.1-0.1,0.1-0.2l1-1.5c0.1-0.1,0.2-0.1,0.5-0.1l0,0c0.2,0,0.3,0,0.3,0l0.1,0.1c0,0,0,0.1-0.1,0.2l-1.6,2.3l1.7,2.5
			c0.1,0.1,0.1,0.1,0.1,0.2c0,0.1,0,0.1-0.1,0.1s-0.2,0-0.4,0h-0.1c-0.1,0-0.2,0-0.3,0s-0.1-0.1-0.2-0.1l-1.1-1.7
			c-0.1-0.1-0.1-0.2-0.1-0.2l-0.1-0.1c0,0,0,0.1-0.1,0.1s-0.1,0.1-0.2,0.2l-1.1,1.7c-0.1,0.1-0.2,0.1-0.5,0.1l0,0
			C29.7,173.5,29.6,173.4,29.5,173.4z"/>
		<path class="st14" d="M35.4,172.8c-0.4-0.5-0.6-1.1-0.6-2.1c0-0.9,0.2-1.6,0.6-2.1s1-0.7,1.8-0.7c0.7,0,1.2,0.2,1.6,0.7
			s0.5,1.1,0.5,2c0,0,0,0.1-0.1,0.2s-0.1,0.1-0.1,0.2s-0.1,0.1-0.1,0.1h-3.3c0,0.6,0.2,1,0.4,1.3s0.6,0.4,1.2,0.4
			c0.3,0,0.5,0,0.7-0.1s0.4-0.2,0.6-0.3c0,0,0,0,0.1,0s0.1,0,0.1,0s0.1,0,0.1,0.1s0.1,0.1,0.1,0.2s0.1,0.1,0.1,0.2
			c0,0.1-0.1,0.2-0.3,0.3s-0.4,0.2-0.7,0.3s-0.6,0.1-0.9,0.1C36.5,173.5,35.9,173.3,35.4,172.8z M38.5,170.3c0-1.1-0.4-1.6-1.2-1.6
			c-0.9,0-1.4,0.5-1.5,1.6H38.5z"/>
		<path class="st14" d="M41.4,173.1c-0.3-0.2-0.5-0.6-0.7-1s-0.2-0.9-0.2-1.4c0-0.6,0.1-1.1,0.3-1.5s0.4-0.7,0.7-1s0.7-0.3,1.1-0.3
			c0.3,0,0.6,0,0.8,0.1s0.5,0.2,0.7,0.4v-2.6c0-0.2,0.1-0.2,0.4-0.2l0,0c0.3,0,0.4,0.1,0.4,0.2v6.1c0,0.5,0,0.8,0.1,1
			s0.1,0.3,0.1,0.3c0,0.1-0.1,0.1-0.2,0.2s-0.3,0.1-0.4,0.1c-0.1,0-0.1,0-0.2-0.1s-0.1-0.1-0.1-0.2s0-0.2-0.1-0.4
			c-0.5,0.5-1,0.8-1.7,0.8C42,173.5,41.7,173.4,41.4,173.1z M43.3,172.6c0.2-0.1,0.5-0.3,0.7-0.5v-2.9c-0.4-0.3-0.8-0.5-1.3-0.5
			s-0.8,0.2-1.1,0.5s-0.4,0.8-0.4,1.4c0,0.7,0.1,1.2,0.3,1.6s0.5,0.5,1,0.5C42.8,172.7,43.1,172.7,43.3,172.6z"/>
	</g>
</g>
<g id="iamg_adaptive_info_icon">
	<path class="st18" d="M119.7,178.2h-48c-1.5,0-2.8-1.3-2.8-2.8V165c0-1.5,1.3-2.8,2.8-2.8h48c1.5,0,2.8,1.3,2.8,2.8v10.4
		C122.5,176.9,121.2,178.2,119.7,178.2z"/>
	<g>
		<path class="st14" d="M75.6,173c-0.1,0-0.1-0.1-0.1-0.1v-0.1L78,166c0-0.1,0.2-0.2,0.4-0.2h0.3c0.2,0,0.4,0.1,0.4,0.2l2.5,6.9v0.1
			c0,0.1-0.1,0.2-0.4,0.2h-0.1c-0.2,0-0.4-0.1-0.4-0.2l-0.6-1.7H77l-0.6,1.7c0,0.1-0.2,0.2-0.4,0.2l0,0C75.8,173,75.7,173,75.6,173z
			 M79.8,170.3l-1.1-3.1c0-0.1-0.1-0.2-0.1-0.3s0-0.2-0.1-0.3l0,0c0,0.3-0.1,0.5-0.2,0.6l-1.1,3.1H79.8z"/>
		<path class="st14" d="M83.3,172.7c-0.3-0.2-0.5-0.6-0.7-1s-0.2-0.9-0.2-1.4c0-0.6,0.1-1.1,0.3-1.5s0.4-0.7,0.7-1s0.7-0.3,1.1-0.3
			c0.3,0,0.6,0,0.8,0.1s0.5,0.2,0.7,0.4v-2.6c0-0.2,0.1-0.2,0.4-0.2l0,0c0.3,0,0.4,0.1,0.4,0.2v6.1c0,0.5,0,0.8,0.1,1
			s0.1,0.3,0.1,0.3c0,0.1-0.1,0.1-0.2,0.2s-0.3,0.1-0.4,0.1s-0.1,0-0.2-0.1s-0.1-0.1-0.1-0.2s0-0.2-0.1-0.4c-0.5,0.5-1,0.8-1.7,0.8
			C83.9,173,83.6,172.9,83.3,172.7z M85.2,172.1c0.2-0.1,0.5-0.3,0.7-0.5v-2.9c-0.4-0.3-0.8-0.5-1.3-0.5s-0.8,0.2-1.1,0.5
			s-0.4,0.8-0.4,1.4c0,0.7,0.1,1.2,0.3,1.6s0.5,0.5,1,0.5C84.7,172.3,85,172.2,85.2,172.1z"/>
		<path class="st14" d="M88.7,172.7c-0.3-0.3-0.5-0.7-0.5-1.2s0.2-1,0.5-1.2s0.7-0.5,1.2-0.5s1.1-0.1,1.7-0.1v-0.5
			c0-0.3-0.1-0.5-0.3-0.6s-0.5-0.2-0.9-0.2c-0.3,0-0.6,0-0.8,0.1s-0.5,0.2-0.7,0.3c-0.1,0-0.1,0.1-0.2,0.1c0,0-0.1,0-0.2-0.1
			s-0.1-0.1-0.1-0.2s-0.1-0.1-0.1-0.2c0-0.1,0.1-0.2,0.3-0.3s0.4-0.2,0.7-0.3s0.6-0.1,0.9-0.1c0.7,0,1.2,0.1,1.5,0.4
			s0.5,0.7,0.5,1.2v2.3c0,0.5,0,0.8,0.1,1s0.1,0.3,0.1,0.3c0,0.1-0.1,0.1-0.2,0.2s-0.3,0.1-0.4,0.1s-0.2-0.1-0.2-0.2
			s-0.1-0.3-0.1-0.5v-0.1c-0.2,0.2-0.5,0.4-0.8,0.6s-0.6,0.2-1,0.2C89.4,173,89,172.9,88.7,172.7z M90.9,172.1
			c0.2-0.1,0.5-0.3,0.8-0.5v-1.2c-0.5,0-0.9,0-1.3,0.1s-0.6,0.1-0.9,0.3s-0.4,0.4-0.4,0.7s0.1,0.5,0.2,0.6s0.4,0.2,0.7,0.2
			C90.3,172.3,90.6,172.2,90.9,172.1z"/>
		<path class="st14" d="M94.2,174.9v-5.8c0-0.5,0-0.8-0.1-1s-0.1-0.3-0.1-0.3c0-0.1,0.1-0.1,0.2-0.2s0.3-0.1,0.4-0.1
			s0.2,0.1,0.2,0.2s0.1,0.2,0.1,0.3s0,0.2,0,0.2c0.5-0.5,1-0.8,1.7-0.8c0.4,0,0.8,0.1,1.1,0.4s0.5,0.6,0.7,1s0.2,0.9,0.2,1.4
			c0,0.6-0.1,1.1-0.3,1.5s-0.4,0.7-0.7,0.9s-0.6,0.4-1,0.4c-0.3,0-0.6,0-0.8-0.1s-0.5-0.2-0.7-0.4v2.4c0,0.2-0.1,0.2-0.4,0.2l0,0
			C94.4,175.2,94.2,175.1,94.2,174.9z M97.4,171.8c0.2-0.3,0.4-0.8,0.4-1.4c0-0.7-0.1-1.2-0.3-1.6s-0.5-0.5-1-0.5
			c-0.2,0-0.5,0.1-0.7,0.2s-0.5,0.3-0.7,0.5v2.9c0.4,0.3,0.8,0.5,1.3,0.5C96.9,172.3,97.2,172.1,97.4,171.8z"/>
		<path class="st14" d="M100.8,172.7c-0.3-0.2-0.4-0.6-0.4-1.1v-3.3h-0.5c-0.1,0-0.1,0-0.2-0.1s0-0.1,0-0.2v-0.1c0-0.1,0-0.2,0-0.2
			s0.1-0.1,0.2-0.1h0.5l0.1-1.1c0-0.2,0.1-0.2,0.3-0.2h0.1c0.1,0,0.2,0,0.2,0.1s0.1,0.1,0.1,0.2v1.1h0.9c0.1,0,0.1,0,0.2,0.1
			s0,0.1,0,0.2v0.1c0,0.1,0,0.2,0,0.2s-0.1,0.1-0.2,0.1h-0.9v3.2c0,0.3,0,0.5,0.1,0.6s0.2,0.2,0.4,0.2c0.1,0,0.2,0,0.3,0
			s0.1,0,0.1,0c0.1,0,0.1,0.1,0.2,0.2s0.1,0.2,0.1,0.3c0,0.2-0.3,0.3-0.8,0.3C101.4,173,101.1,172.9,100.8,172.7z"/>
		<path class="st14" d="M103.8,166v-0.6c0-0.2,0.1-0.2,0.4-0.2h0.1c0.3,0,0.4,0.1,0.4,0.2v0.6c0,0.2-0.1,0.2-0.4,0.2h-0.1
			C103.9,166.2,103.8,166.1,103.8,166z M103.8,172.8v-5c0-0.2,0.1-0.2,0.4-0.2l0,0c0.3,0,0.4,0.1,0.4,0.2v5c0,0.2-0.1,0.2-0.4,0.2
			l0,0C104,173,103.8,172.9,103.8,172.8z"/>
		<path class="st14" d="M107.6,172.8l-1.7-5c0-0.1,0-0.1,0-0.1c0-0.1,0-0.1,0.1-0.1s0.2,0,0.3,0h0.1c0.2,0,0.4,0.1,0.4,0.2l1.1,3.3
			c0.1,0.3,0.2,0.6,0.3,1.1l0.1,0.2l0,0l0.1-0.3c0.1-0.4,0.2-0.7,0.2-1l1.1-3.3c0-0.1,0.2-0.2,0.4-0.2l0,0c0.3,0,0.4,0.1,0.4,0.2
			v0.1l-1.7,5c0,0.1-0.2,0.2-0.4,0.2H108C107.7,173,107.6,172.9,107.6,172.8z"/>
		<path class="st14" d="M111.9,172.4c-0.4-0.5-0.6-1.1-0.6-2.1c0-0.9,0.2-1.6,0.6-2.1s1-0.7,1.8-0.7c0.7,0,1.2,0.2,1.6,0.7
			s0.5,1.1,0.5,2c0,0,0,0.1-0.1,0.2s-0.1,0.1-0.1,0.2s-0.1,0.1-0.1,0.1h-3.3c0,0.6,0.2,1,0.4,1.3s0.6,0.4,1.2,0.4
			c0.3,0,0.5,0,0.7-0.1s0.4-0.2,0.6-0.3c0,0,0,0,0.1,0s0.1,0,0.1,0s0.1,0,0.1,0.1s0.1,0.1,0.1,0.2s0.1,0.1,0.1,0.2
			c0,0.1-0.1,0.2-0.3,0.3s-0.4,0.2-0.7,0.3s-0.6,0.1-0.9,0.1C113,173,112.3,172.8,111.9,172.4z M114.9,169.9c0-1.1-0.4-1.6-1.2-1.6
			c-0.9,0-1.4,0.5-1.5,1.6H114.9z"/>
	</g>
</g>
<g id="iamg_full_info_icon">
	<path class="st18" d="M178.9,177.6h-48c-1.5,0-2.8-1.3-2.8-2.8v-10.4c0-1.5,1.3-2.8,2.8-2.8h48c1.5,0,2.8,1.3,2.8,2.8v10.4
		C181.7,176.3,180.5,177.6,178.9,177.6z"/>
	<g>
		<path class="st14" d="M146.8,173.2v-6.8c0-0.1,0-0.2,0.1-0.2s0.1-0.1,0.2-0.1h3.3c0.1,0,0.1,0,0.2,0.1s0,0.1,0,0.2v0.2
			c0,0.1,0,0.2,0,0.2s-0.1,0.1-0.2,0.1h-2.7v2.4h2.5c0.1,0,0.1,0,0.2,0.1s0.1,0.1,0.1,0.2v0.2c0,0.1,0,0.2-0.1,0.2s-0.1,0.1-0.2,0.1
			h-2.5v3.1c0,0.2-0.1,0.2-0.4,0.2h-0.1C147,173.5,146.8,173.4,146.8,173.2z"/>
		<path class="st14" d="M152.3,173.1c-0.3-0.3-0.5-0.7-0.5-1.2v-3.6c0-0.2,0.1-0.2,0.4-0.2l0,0c0.3,0,0.4,0.1,0.4,0.2v3.5
			c0,0.3,0.1,0.6,0.3,0.7s0.4,0.3,0.8,0.3c0.2,0,0.5-0.1,0.7-0.2s0.4-0.3,0.6-0.5v-3.8c0-0.2,0.1-0.2,0.4-0.2l0,0
			c0.3,0,0.4,0.1,0.4,0.2v3.7c0,0.5,0,0.8,0.1,1s0.1,0.3,0.1,0.3c0,0.1-0.1,0.1-0.2,0.2s-0.2,0.1-0.4,0.1c-0.1,0-0.2-0.1-0.2-0.2
			s-0.1-0.2-0.1-0.3s0-0.2,0-0.2c-0.2,0.2-0.5,0.4-0.8,0.6s-0.6,0.2-0.9,0.2C153,173.5,152.6,173.4,152.3,173.1z"/>
		<path class="st14" d="M158.1,173.2c-0.3-0.2-0.4-0.6-0.4-1.1v-6.2c0-0.2,0.1-0.2,0.4-0.2l0,0c0.3,0,0.4,0.1,0.4,0.2v6.1
			c0,0.3,0.1,0.5,0.2,0.6s0.2,0.2,0.4,0.2c0.1,0,0.2,0,0.3,0s0.1,0,0.1,0c0.1,0,0.1,0.1,0.2,0.2s0.1,0.2,0.1,0.3
			c0,0.2-0.3,0.3-0.8,0.3C158.7,173.5,158.4,173.4,158.1,173.2z"/>
		<path class="st14" d="M161.2,173.2c-0.3-0.2-0.4-0.6-0.4-1.1v-6.2c0-0.2,0.1-0.2,0.4-0.2l0,0c0.3,0,0.4,0.1,0.4,0.2v6.1
			c0,0.3,0.1,0.5,0.2,0.6s0.2,0.2,0.4,0.2c0.1,0,0.2,0,0.3,0s0.1,0,0.1,0c0.1,0,0.1,0.1,0.2,0.2s0.1,0.2,0.1,0.3
			c0,0.2-0.3,0.3-0.8,0.3C161.8,173.5,161.5,173.4,161.2,173.2z"/>
	</g>
</g>
</svg>
