<?xml version="1.0" encoding="utf-8"?>
<!-- Generator: Adobe Illustrator 24.0.1, SVG Export Plug-In . SVG Version: 6.00 Build 0)  -->
<svg version="1.1" id="Layer_1" xmlns="http://www.w3.org/2000/svg" xmlns:xlink="http://www.w3.org/1999/xlink" x="0px" y="0px"
	 width="200px" height="100px" viewBox="0 0 200 100" enable-background="new 0 0 200 100" xml:space="preserve">
<g id="presenter_start_icon">
	<rect fill="#FFFFFF" fill-opacity="0" width="20" height="20"/>
	<path id="prent_screen" fill="#2A2770" d="M20,1.8v0.8c0,0.5-0.4,0.9-0.9,0.9H19v10.1c0,0.5-0.4,0.9-0.9,0.9h-7.6v1.3l3.3,2.4
		c0.2,0.1,0.2,0.4,0.1,0.6c-0.1,0.1-0.2,0.2-0.4,0.2c-0.1,0-0.2,0-0.3-0.1l-2.8-2v1.7c0,0.2-0.2,0.4-0.4,0.4s-0.4-0.2-0.4-0.4V17
		l-2.8,2c-0.2,0.1-0.5,0.1-0.6-0.1s-0.2-0.5,0-0.6l3.3-2.4v-1.3H1.9c-0.5,0-0.9-0.4-0.9-0.9V3.6H0.9C0.4,3.6,0,3.2,0,2.7V1.8
		C0,1.4,0.4,1,0.9,1h8.7V0.4C9.6,0.2,9.8,0,10,0s0.4,0.2,0.4,0.4V1h8.7C19.6,1,20,1.4,20,1.8z M19.1,2.7V1.8H0.9v0.8h18.2V2.7z
		 M18.1,13.6v-10H1.9v10.1h16.2V13.6z"/>
	<rect x="0.9" y="1.8" fill="#9EDAE5" width="18.2" height="0.8"/>
	<polygon fill="#9EDAE5" stroke="#2A2770" stroke-width="0.4972" stroke-linejoin="round" stroke-miterlimit="10" points="6.9,12.1 
		6.9,4.9 13.1,8.5 	"/>
</g>
<g id="presenter_editor_icon">
	<rect x="23.6" fill="#FFFFFF" fill-opacity="0" width="20" height="20"/>
	<path fill="#2A2770" d="M43.6,1.8v0.8c0,0.5-0.4,0.9-0.9,0.9h-0.1v10.1c0,0.5-0.4,0.9-0.9,0.9h-7.6v1.3l3.3,2.4
		c0.2,0.1,0.2,0.4,0.1,0.6c-0.1,0.1-0.2,0.2-0.4,0.2c-0.1,0-0.2,0-0.3-0.1l-2.8-2v1.7c0,0.2-0.2,0.4-0.4,0.4s-0.4-0.2-0.4-0.4V17
		l-2.8,2c-0.2,0.1-0.5,0.1-0.6-0.1s-0.1-0.5,0.1-0.6l3.3-2.4v-1.3h-7.6c-0.5,0-0.9-0.4-0.9-0.9V3.6h-0.1c-0.5,0-0.9-0.4-0.9-0.9V1.8
		C23.6,1.4,24,1,24.5,1h8.7V0.4c0-0.2,0.2-0.4,0.4-0.4S34,0.2,34,0.4V1h8.7C43.2,1,43.6,1.4,43.6,1.8z M42.7,2.7V1.8H24.5v0.8h18.2
		V2.7z M41.7,13.6v-10H25.5v10.1h16.2V13.6z"/>
	<rect x="24.5" y="1.8" fill="#9EDAE5" width="18.2" height="0.8"/>
	
		<path opacity="0.8" fill="#E2D85A" stroke="#2A2770" stroke-width="0.7885" stroke-linejoin="round" stroke-miterlimit="10" enable-background="new    " d="
		M39.5,8.8h-0.7c-0.1-0.6-0.4-1.1-0.7-1.6l0.5-0.5c0.2-0.2,0.2-0.4,0-0.6l-1-1.1c-0.2-0.2-0.4-0.2-0.6,0l-0.5,0.5
		c-0.5-0.3-1-0.5-1.6-0.7V4.1c0-0.2-0.2-0.4-0.4-0.4h-1.6c-0.2,0-0.4,0.2-0.4,0.4v0.7c-0.6,0.1-1.1,0.4-1.6,0.7L30.3,5
		c-0.2-0.2-0.4-0.2-0.6,0l-1.1,1.1c-0.2,0.2-0.2,0.4,0,0.6l0.5,0.5c-0.3,0.5-0.5,1-0.7,1.6h-0.7c-0.2,0-0.4,0.2-0.4,0.4v1.6
		c0,0.2,0.2,0.4,0.4,0.4h0.7c0.1,0.6,0.4,1.1,0.7,1.6l-0.5,0.5c-0.2,0.2-0.2,0.4,0,0.6l1.1,1.1c0.2,0.2,0.4,0.2,0.6,0l0.5-0.5
		c0.5,0.3,1,0.5,1.6,0.7V16c0,0.2,0.2,0.4,0.4,0.4h1.6c0.2,0,0.4-0.2,0.4-0.4v-0.7c0.6-0.1,1.1-0.4,1.6-0.7l0.5,0.5
		c0.2,0.2,0.4,0.2,0.6,0l1.1-1.1c0.2-0.2,0.2-0.4,0-0.6l-0.5-0.5c0.3-0.5,0.5-1,0.7-1.6h0.7c0.2,0,0.4-0.2,0.4-0.4V9.3
		C40,9,39.8,8.8,39.5,8.8z M33.6,12.2c-1.2,0-2.2-1-2.2-2.2s1-2.2,2.2-2.2s2.2,1,2.2,2.2S34.8,12.2,33.6,12.2z"/>
</g>
<polygon id="presenter_forward" fill="#9EDAE5" stroke="#2A2770" stroke-width="1.2" stroke-linejoin="round" stroke-miterlimit="10" points="
	26,39.6 26,22.2 41,30.9 "/>
<polygon id="presenter_backward" fill="#9EDAE5" stroke="#2A2770" stroke-width="1.2" stroke-linejoin="round" stroke-miterlimit="10" points="
	19,39.6 19,22.2 4,30.9 "/>
<g id="full_screen_button">
	<rect x="139" y="3" fill="#FFFFFF" fill-opacity="0" width="20" height="20"/>
	<path d="M141.9,15.9H139V23h7.1v-2.9h-4.3L141.9,15.9L141.9,15.9L141.9,15.9z M139,10.1h2.9V5.9h4.3V3H139V10.1z M156.1,20.1h-4.3
		V23h7.1v-7.1H156L156.1,20.1L156.1,20.1z M151.9,3v2.9h4.3v4.3h2.9V3H151.9z"/>
</g>
<g id="upload">
	<rect x="90" y="3" opacity="0.14" fill="#FFFFFF" fill-opacity="0" width="20" height="20"/>
	<path fill="#231F20" d="M95.6,8.2H98v6.4c0,0.2,0.2,0.4,0.4,0.4h3.2c0.2,0,0.4-0.2,0.4-0.4V8.2h2.4c0.3,0,0.6-0.3,0.3-0.7l-4.4-4.4
		c-0.1-0.1-0.3-0.2-0.6,0l-4.4,4.4C95,7.9,95.4,8.3,95.6,8.2z M100,4l3.4,3.4h-1.8c-0.2,0-0.4,0.2-0.4,0.4v6.4h-2.3V7.8
		c0-0.2-0.2-0.4-0.4-0.4h-1.8L100,4z"/>
	<path fill="#231F20" d="M109.6,14.3h-2.5c-0.2,0-0.4,0.2-0.4,0.4V17H93.4v-2.4c0-0.2-0.2-0.4-0.4-0.4h-2.5c-0.2,0-0.4,0.2-0.4,0.4
		v5.6c0,0.2,0.2,0.4,0.4,0.4h19.2c0.2,0,0.4-0.2,0.4-0.4v-5.6C110,14.5,109.8,14.3,109.6,14.3z M109.1,19.8H90.9v-4.7h1.6v2.4
		c0,0.2,0.2,0.4,0.4,0.4H107c0.2,0,0.4-0.2,0.4-0.4v-2.4h1.6L109.1,19.8L109.1,19.8z"/>
</g>
<polygon id="play_av" fill="#212121" stroke="#919191" stroke-width="0.3" stroke-miterlimit="10" points="62.2,46.7 62.2,28.7 
	77.2,37.7 "/>
<g id="pause_av">
	<rect x="62.2" y="48.2" fill="none" width="14.6" height="18"/>
	<rect x="63.6" y="48.2" fill="#212121" stroke="#919191" stroke-width="0.3" stroke-miterlimit="10" width="4.2" height="18"/>
	<rect x="71.2" y="48.2" fill="#212121" stroke="#919191" stroke-width="0.3" stroke-miterlimit="10" width="4.2" height="18"/>
</g>
<g id="sound_on">
	<path fill="#212121" stroke="#919191" stroke-width="0.3" stroke-miterlimit="10" d="M98.2,28.7c-0.2-0.1-0.5-0.1-0.7,0.1l-6.3,5
		h-3c-0.7,0-1.3,0.6-1.3,1.3v5.1c0,0.7,0.6,1.3,1.3,1.3h3l6.3,5c0.1,0.1,0.3,0.1,0.4,0.1s0.2,0,0.3-0.1c0.2-0.1,0.4-0.3,0.4-0.6
		V29.3C98.6,29,98.4,28.8,98.2,28.7z"/>
	<path fill="#212121" stroke="#919191" stroke-width="0.3" stroke-miterlimit="10" d="M101.8,33.1c-0.3-0.3-0.7-0.2-0.9,0
		c-0.3,0.3-0.2,0.7,0,0.9c1,1,1.5,2.2,1.5,3.6s-0.5,2.7-1.5,3.6c-0.3,0.2-0.3,0.7,0,0.9c0.1,0.1,0.3,0.2,0.5,0.2s0.3-0.1,0.5-0.2
		c1.2-1.2,1.9-2.8,1.9-4.5C103.7,35.9,103,34.3,101.8,33.1z"/>
	<path fill="#212121" stroke="#919191" stroke-width="0.3" stroke-miterlimit="10" d="M103.6,31.3c-0.3-0.3-0.7-0.2-0.9,0
		c-0.2,0.3-0.2,0.7,0,0.9c1.5,1.4,2.3,3.4,2.3,5.4s-0.8,4-2.3,5.4c-0.3,0.3-0.3,0.7,0,0.9c0.1,0.1,0.3,0.2,0.5,0.2s0.3-0.1,0.5-0.2
		c1.7-1.7,2.6-3.9,2.6-6.4C106.3,35.2,105.3,33,103.6,31.3z"/>
</g>
<g id="sound_off">
	<path fill="#212121" stroke="#919191" stroke-width="0.3" stroke-miterlimit="10" d="M98.2,49.4c-0.2-0.1-0.5-0.1-0.7,0.1l-6.3,5
		h-3c-0.7,0-1.3,0.6-1.3,1.3V61c0,0.7,0.6,1.3,1.3,1.3h3l6.3,5c0.1,0.1,0.3,0.1,0.4,0.1s0.2,0,0.3-0.1c0.2-0.1,0.4-0.3,0.4-0.6V50
		C98.6,49.8,98.4,49.6,98.2,49.4z"/>
	<path fill="#212121" stroke="#919191" stroke-width="0.3" stroke-miterlimit="10" d="M101.8,53.8c-0.3-0.2-0.7-0.2-0.9,0
		c-0.3,0.3-0.2,0.7,0,0.9c1,1,1.5,2.2,1.5,3.6c0,1.4-0.5,2.7-1.5,3.6c-0.3,0.2-0.3,0.7,0,0.9c0.1,0.1,0.3,0.2,0.5,0.2
		s0.3-0.1,0.5-0.2c1.2-1.2,1.9-2.8,1.9-4.5C103.7,56.7,103,55,101.8,53.8z"/>
	<path fill="#212121" stroke="#919191" stroke-width="0.3" stroke-miterlimit="10" d="M103.6,52c-0.3-0.3-0.7-0.2-0.9,0
		c-0.2,0.3-0.2,0.7,0,0.9c1.5,1.4,2.3,3.4,2.3,5.4s-0.8,4-2.3,5.4c-0.3,0.3-0.3,0.7,0,0.9c0.1,0.1,0.3,0.2,0.5,0.2s0.3-0.1,0.5-0.2
		c1.7-1.7,2.6-3.9,2.6-6.4S105.3,53.7,103.6,52z"/>
	<path fill="#212121" stroke="#919191" stroke-width="0.2759" stroke-miterlimit="10" d="M89.6,66.9c-0.3,0-0.6-0.1-0.9-0.4
		c-0.5-0.5-0.5-1.3,0-1.7l14.7-14.6c0.5-0.5,1.3-0.5,1.7,0c0.5,0.5,0.5,1.3,0,1.7L90.4,66.6C90.2,66.8,89.9,66.9,89.6,66.9z"/>
</g>
<g id="stop_av">
	<rect x="62.5" y="69.8" fill="#212121" fill-opacity="0" width="14.6" height="18"/>
	<path fill="#212121" stroke="#919191" stroke-width="0.3" stroke-miterlimit="10" d="M62.4,69.8v18h18v-18H62.4z M75.8,82.2h-1.3
		v-2.9h-5.2v2.9l0,0l-3.1-3.9l3.1-3.9l0,0v2.9h5.2v-2.8h1.3V82.2z"/>
</g>
<g id="Video_fullscreen_on">
	<rect x="88.2" y="69.8" fill="#212121" fill-opacity="0" width="18.1" height="17.9"/>
	<path fill="#212121" stroke="#919191" stroke-width="0.3" stroke-miterlimit="10" d="M105.6,69.9h-6c-0.2,0-0.4,0.2-0.4,0.4v0.8
		c0,0.2,0.2,0.4,0.4,0.4h3.5l-5,5c-0.2,0.2-0.2,0.5,0,0.6l0.6,0.6c0.1,0.1,0.2,0.1,0.3,0.1s0.2,0,0.3-0.1l5-5v3.5
		c0,0.2,0.2,0.4,0.4,0.4h0.8c0.2,0,0.4-0.2,0.4-0.4v-6C106,70.1,105.8,69.9,105.6,69.9z"/>
	<path fill="#212121" stroke="#919191" stroke-width="0.3" stroke-miterlimit="10" d="M91,71.6h3.5c0.2,0,0.4-0.2,0.4-0.4v-0.8
		c0-0.2-0.2-0.4-0.4-0.4h-6c-0.2,0-0.4,0.2-0.4,0.4v6c0,0.2,0.2,0.4,0.4,0.4h0.8c0.2,0,0.4-0.2,0.4-0.4v-3.5l5,5
		C94.8,78,94.9,78,95,78s0.2,0,0.3-0.1l0.6-0.6c0.2-0.2,0.2-0.5,0-0.6L91,71.6z"/>
	<path fill="#212121" stroke="#919191" stroke-width="0.3" stroke-miterlimit="10" d="M105.6,80.8h-0.8c-0.2,0-0.4,0.2-0.4,0.4v3.5
		l-5-5c-0.2-0.2-0.5-0.2-0.6,0l-0.6,0.6c-0.2,0.2-0.2,0.5,0,0.6l5,5h-3.5c-0.2,0-0.4,0.2-0.4,0.4v0.8c0,0.2,0.2,0.4,0.4,0.4h6
		c0.2,0,0.4-0.2,0.4-0.4v-6C106,81,105.8,80.8,105.6,80.8z"/>
	<path fill="#212121" stroke="#919191" stroke-width="0.3" stroke-miterlimit="10" d="M95.4,79.8c-0.2-0.2-0.5-0.2-0.6,0l-5,5v-3.5
		c0-0.2-0.2-0.4-0.4-0.4h-0.8c-0.2,0-0.4,0.2-0.4,0.4v6c0,0.2,0.2,0.4,0.4,0.4h6c0.2,0,0.4-0.2,0.4-0.4v-0.8c0-0.2-0.2-0.4-0.4-0.4
		H91l5-5c0.2-0.2,0.2-0.5,0-0.6L95.4,79.8z"/>
</g>
<g id="Video_fullscreen_off">
	<rect x="111.6" y="70.3" fill="#212121" fill-opacity="0" width="18.1" height="17.9"/>
	<path fill="#212121" stroke="#919191" stroke-width="0.3" stroke-miterlimit="10" d="M119.2,79.7h-6c-0.2,0-0.4,0.2-0.4,0.4V81
		c0,0.2,0.2,0.4,0.4,0.4h3.5l-5,5c-0.2,0.2-0.2,0.5,0,0.6l0.6,0.6c0.1,0.1,0.2,0.1,0.3,0.1c0.1,0,0.2,0,0.3-0.1l5-5v3.5
		c0,0.2,0.2,0.4,0.4,0.4h0.8c0.2,0,0.4-0.2,0.4-0.4v-6C119.7,79.9,119.5,79.7,119.2,79.7z"/>
	<path fill="#212121" stroke="#919191" stroke-width="0.3" stroke-miterlimit="10" d="M124.5,81.5h3.5c0.2,0,0.4-0.2,0.4-0.4v-0.8
		c0-0.2-0.2-0.4-0.4-0.4h-6c-0.2,0-0.4,0.2-0.4,0.4v6c0,0.2,0.2,0.4,0.4,0.4h0.8c0.2,0,0.4-0.2,0.4-0.4v-3.5l5,5
		c0.1,0.1,0.2,0.1,0.3,0.1s0.2,0,0.3-0.1l0.6-0.6c0.2-0.2,0.2-0.5,0-0.6L124.5,81.5z"/>
	<path fill="#212121" stroke="#919191" stroke-width="0.3" stroke-miterlimit="10" d="M119.2,71.2h-0.8c-0.2,0-0.4,0.2-0.4,0.4v3.5
		l-5-5c-0.2-0.2-0.5-0.2-0.6,0l-0.6,0.6c-0.2,0.2-0.2,0.5,0,0.6l5,5h-3.5c-0.2,0-0.4,0.2-0.4,0.4v0.8c0,0.2,0.2,0.4,0.4,0.4h6
		c0.2,0,0.4-0.2,0.4-0.4v-6C119.7,71.4,119.5,71.2,119.2,71.2z"/>
	<path fill="#212121" stroke="#919191" stroke-width="0.3" stroke-miterlimit="10" d="M128.9,70.1c-0.2-0.2-0.5-0.2-0.6,0l-5,5v-3.5
		c0-0.2-0.2-0.4-0.4-0.4h-0.8c-0.2,0-0.4,0.2-0.4,0.4v6c0,0.2,0.2,0.4,0.4,0.4h6c0.2,0,0.4-0.2,0.4-0.4v-0.8c0-0.2-0.2-0.4-0.4-0.4
		h-3.5l5-5c0.2-0.2,0.2-0.5,0-0.6L128.9,70.1z"/>
</g>
<g id="restart_pres">
	<circle fill="#FFFFFF" fill-opacity="0" cx="71.4" cy="12.1" r="10"/>
	<path id="round_arrows" fill="none" stroke="#535353" stroke-miterlimit="10" d="M80.7,14.6h-6.2c-0.3,0-0.6,0.3-0.6,0.6
		s0.3,0.6,0.6,0.9l1.7,1.7c-1.3,1.1-3,1.8-4.8,1.8c-3.7,0-6.8-2.7-7.4-6.2h-2.5c0.6,4.9,4.8,8.7,9.9,8.7c2.5,0,4.8-0.9,6.6-2.5
		l1.8,1.8c0.3,0.3,0.6,0.7,1,0.7s0.6-0.3,0.6-0.6v-6.2C81.4,15.2,81.4,14.6,80.7,14.6z M62,9.6h6.2c0.3,0,0.6-0.3,0.6-0.6
		s-0.3-0.6-0.6-0.9l-1.7-1.7c1.3-1.1,3-1.8,4.8-1.8c3.7,0,6.8,2.7,7.4,6.2h2.5c-0.6-4.9-4.8-8.7-9.9-8.7c-2.5,0-4.8,0.9-6.6,2.5
		L63,2.8c-0.3-0.3-0.6-0.7-1-0.7c-0.3,0-0.6,0.3-0.6,0.6V9C61.4,9.1,61.4,9.6,62,9.6z"/>
</g>
</svg>
