<?xml version="1.0" encoding="utf-8"?>
<!-- Generator: Adobe Illustrator 16.0.0, SVG Export Plug-In . SVG Version: 6.00 Build 0)  -->
<!DOCTYPE svg PUBLIC "-//W3C//DTD SVG 1.1//EN" "http://www.w3.org/Graphics/SVG/1.1/DTD/svg11.dtd">
<svg version="1.1" id="Layer_1" xmlns="http://www.w3.org/2000/svg" xmlns:xlink="http://www.w3.org/1999/xlink" x="0px" y="0px"
	 width="200px" height="200px" viewBox="0 0 200 200" enable-background="new 0 0 200 200" xml:space="preserve">
<g id="ia_designer_reflect_vert">
	<polygon points="6.362,14.7 6.362,0 0,14.7 	"/>
	<polygon fill="#9B9A9A" points="6.362,15.3 6.362,30 0,15.3 	"/>
</g>
<g id="ia_designer_reflect_horiz">
	<polygon points="23.878,6.936 9.178,6.936 23.878,0.574 	"/>
	<polygon fill="#9B9A9A" points="24.478,6.936 39.178,6.936 24.478,0.574 	"/>
</g>
<g id="ia_designer_lock_closed">
	<rect x="19.785" y="24.38" opacity="0.05" fill="#FFFFFF" enable-background="new    " width="10" height="15"/>
	<path fill="#FFFF00" stroke="#000000" stroke-width="0.5" d="M28.945,31.806v-3.783c-0.007-0.156-0.082-1.551-1.117-2.588
		c-0.694-0.7-1.64-1.055-2.804-1.055l-0.276,0.004c-1.27-0.039-2.275,0.313-3.007,1.049c-1.028,1.033-1.11,2.44-1.117,2.613v3.76
		c-0.53,0.688-0.84,1.513-0.84,2.399v5.175h10v-5.175C29.785,33.319,29.475,32.493,28.945,31.806z M25.702,34.642v1.608
		c0,0.546-0.411,0.987-0.917,0.987s-0.917-0.441-0.917-0.987v-1.608c-0.229-0.254-0.357-0.596-0.357-0.955
		c0-0.758,0.571-1.373,1.274-1.373c0.702,0,1.272,0.615,1.272,1.373C26.059,34.048,25.93,34.386,25.702,34.642z M27.641,30.654
		c-0.812-0.49-1.793-0.781-2.856-0.781s-2.046,0.291-2.856,0.782v-2.582c0.008-0.232,0.157-2.24,2.558-2.289V25.8l0.3-0.012
		l0.3,0.012v-0.016c2.444,0.051,2.554,2.184,2.558,2.262v2.608H27.641z"/>
</g>
<g id="ia_designer_lock_open">
	<rect x="19.783" y="24.38" opacity="0.05" fill="#FFFFFF" enable-background="new    " width="10.002" height="15"/>
	<path fill="#FFFF00" stroke="#000000" stroke-width="0.5" d="M28.944,30.072h-1.303v0.582c-0.812-0.49-1.794-0.781-2.855-0.781
		c-1.063,0-2.046,0.291-2.855,0.781v-2.58c0.009-0.23,0.157-2.24,2.556-2.289v0.016l0.301-0.011l0.299,0.011v-0.017
		c1.112,0.021,1.739,0.477,2.098,0.973h1.486c-0.162-0.432-0.422-0.906-0.84-1.324c-0.695-0.697-1.641-1.053-2.806-1.053
		l-0.276,0.004c-1.27-0.039-2.274,0.314-3.005,1.049c-1.029,1.033-1.111,2.441-1.117,2.613v3.76c-0.53,0.688-0.84,1.514-0.84,2.4
		v5.174h9.999v-5.174c0-0.887-0.313-1.712-0.841-2.4V30.072z M25.7,34.64v1.608c0,0.545-0.409,0.988-0.915,0.988
		s-0.917-0.443-0.917-0.988V34.64c-0.229-0.254-0.356-0.594-0.356-0.952c0-0.759,0.571-1.373,1.271-1.373
		c0.703,0,1.274,0.614,1.274,1.373C26.059,34.048,25.931,34.386,25.7,34.64z"/>
</g>
<g id="ia_designer_disselect">
	<circle fill="#FFFFFF" cx="40.563" cy="22.33" r="7.5"/>
	<g>
		<rect x="36.818" y="18.585" fill="#FFFFFF" width="7.491" height="7.491"/>
		<g>
			<polyline fill="none" stroke="#000000" stroke-width="1.1238" stroke-miterlimit="10" points="44.309,25.274 44.309,26.076 
				43.508,26.076 			"/>
			
				<line fill="none" stroke="#000000" stroke-width="1.1238" stroke-miterlimit="10" stroke-dasharray="2.747,2.747" x1="41.545" y1="26.076" x2="38.601" y2="26.076"/>
			<polyline fill="none" stroke="#000000" stroke-width="1.1238" stroke-miterlimit="10" points="37.621,26.076 36.818,26.076 
				36.818,25.274 			"/>
			
				<line fill="none" stroke="#000000" stroke-width="1.1238" stroke-miterlimit="10" stroke-dasharray="2.747,2.747" x1="36.818" y1="23.31" x2="36.818" y2="20.368"/>
			<polyline fill="none" stroke="#000000" stroke-width="1.1238" stroke-miterlimit="10" points="36.818,19.386 36.818,18.585 
				37.621,18.585 			"/>
			
				<line fill="none" stroke="#000000" stroke-width="1.1238" stroke-miterlimit="10" stroke-dasharray="2.747,2.747" x1="39.584" y1="18.585" x2="42.525" y2="18.585"/>
			<polyline fill="none" stroke="#000000" stroke-width="1.1238" stroke-miterlimit="10" points="43.508,18.585 44.309,18.585 
				44.309,19.386 			"/>
			
				<line fill="none" stroke="#000000" stroke-width="1.1238" stroke-miterlimit="10" stroke-dasharray="2.747,2.747" x1="44.309" y1="21.35" x2="44.309" y2="24.293"/>
		</g>
	</g>
	<g opacity="0.7">
		<g>
			<path fill="#ED1E79" d="M35.183,27.619c-2.881-2.919-2.806-7.672,0.188-10.591c2.994-2.92,7.709-2.92,10.591,0
				c2.881,2.919,2.806,7.673-0.188,10.591C42.781,30.538,38.066,30.574,35.183,27.619z"/>
		</g>
		<g>
			
				<ellipse transform="matrix(0.7009 0.7132 -0.7132 0.7009 28.0711 -22.2581)" fill="#FFFFFF" cx="40.577" cy="22.344" rx="5.726" ry="5.838"/>
		</g>
		<g>
			
				<rect x="39.778" y="15.935" transform="matrix(-0.714 0.7001 -0.7001 -0.714 85.3601 9.9891)" fill="#ED1E79" width="1.723" height="12.985"/>
		</g>
	</g>
</g>
<g id="ia_designer_color_complex_select">
	<path fill="#59C3E8" d="M44.966,38.399c0,2.4-2,4.4-4.4,4.4c-2.399,0-4.399-2-4.399-4.4c0-2.399,2-4.399,4.399-4.399
		C43.066,33.999,44.966,35.999,44.966,38.399z"/>
	<path fill="#FFD163" d="M48.167,44.099c0,2.4-2,4.4-4.4,4.4c-2.399,0-4.4-2-4.4-4.4c0-2.399,2.001-4.399,4.4-4.399
		C46.167,39.699,48.167,41.699,48.167,44.099z"/>
	<path fill="#4DBD91" d="M39.567,42.699c0.299,0.1,0.699,0.1,0.999,0.1c1.9,0,3.601-1.3,4.2-3c-0.3-0.1-0.7-0.1-1-0.1
		C41.767,39.699,40.167,40.999,39.567,42.699z"/>
	<path fill="#F171AB" d="M41.867,44.099c0,2.4-2.001,4.4-4.4,4.4s-4.399-2-4.399-4.4c0-2.399,2-4.399,4.399-4.399
		S41.867,41.699,41.867,44.099z"/>
	<path fill="#AD7CB7" d="M36.366,39.799c0.601,1.8,2.201,3,4.2,3c0.4,0,0.7,0,1-0.1c-0.6-1.801-2.2-3-4.2-3
		C37.067,39.699,36.767,39.799,36.366,39.799z"/>
	<path fill="#EE6224" d="M39.366,44.099c0,1.2,0.5,2.3,1.301,3.101c0.8-0.801,1.3-1.9,1.3-3.101c0-1.201-0.5-2.3-1.3-3.1
		C39.767,41.799,39.366,42.899,39.366,44.099z"/>
	<path fill="#FFFFFF" d="M41.667,42.699c-0.3,0.1-0.7,0.1-1,0.1c-0.301,0-0.7,0-1-0.1c0.199-0.601,0.6-1.2,1-1.7
		C41.066,41.499,41.466,42.099,41.667,42.699z"/>
	<path fill="#010101" d="M45.066,39.699c0.101-0.4,0.2-0.801,0.2-1.2c0-0.9-0.3-1.8-0.8-2.601c-0.1-0.1-0.2-0.1-0.3-0.1
		c-0.101,0.1-0.101,0.2-0.101,0.3c0.5,0.7,0.7,1.5,0.7,2.3c0,0.4-0.1,0.801-0.2,1.101c-0.3-0.101-0.6-0.101-0.899-0.101
		c-1.2,0-2.3,0.5-3.101,1.2c-0.8-0.8-1.899-1.2-3.1-1.2c-0.3,0-0.601,0-0.899,0.101c-0.101-0.4-0.201-0.7-0.201-1.101
		c0-2.3,1.9-4.2,4.2-4.2c1.101,0,2.2,0.4,3,1.2c0.101,0.1,0.2,0.1,0.301,0c0.1-0.1,0.1-0.2,0-0.3c-0.9-0.9-2-1.4-3.301-1.4
		c-2.6,0-4.6,2.1-4.6,4.6c0,0.4,0.101,0.8,0.2,1.2c-1.9,0.6-3.301,2.399-3.301,4.5c0,2.6,2.101,4.7,4.601,4.7
		c0.3,0,0.601,0,0.899-0.101c0.101,0,0.201-0.1,0.201-0.3c0-0.1-0.101-0.2-0.301-0.2c-0.3,0.2-0.5,0.2-0.8,0.2
		c-2.3,0-4.2-1.9-4.2-4.2c0-1.899,1.301-3.5,3-4c0.5,1.3,1.6,2.4,3,2.8c-0.1,0.4-0.199,0.801-0.199,1.2c0,1.2,0.399,2.3,1.199,3.101
		c-0.3,0.3-0.699,0.6-1.199,0.8c-0.101,0-0.201,0.2-0.101,0.3s0.2,0.2,0.3,0.1c0.5-0.199,1-0.5,1.3-0.899
		c0.801,0.8,1.9,1.2,3.101,1.2c2.6,0,4.6-2.101,4.6-4.7C48.367,41.999,46.966,40.299,45.066,39.699z M44.466,39.999
		c-0.5,1.2-1.5,2.1-2.7,2.399c-0.2-0.5-0.5-1-0.899-1.399c0.699-0.7,1.699-1.101,2.8-1.101
		C43.966,39.999,44.267,39.999,44.466,39.999z M40.566,41.399c0.301,0.301,0.601,0.7,0.7,1.2c-0.2,0-0.5,0.101-0.7,0.101
		s-0.499,0-0.7-0.101C40.067,42.099,40.267,41.699,40.566,41.399z M36.667,39.999c0.199,0,0.5-0.101,0.699-0.101
		c1.101,0,2.101,0.4,2.801,1.101c-0.4,0.399-0.7,0.899-0.9,1.399C38.167,42.099,37.167,41.199,36.667,39.999z M39.667,42.999
		c0.3,0.1,0.6,0.1,0.899,0.1c0.301,0,0.601,0,0.9-0.1c0.1,0.399,0.2,0.7,0.2,1.1c0,1-0.4,2-1,2.8c-0.6-0.699-1-1.699-1-2.8
		C39.567,43.699,39.567,43.399,39.667,42.999z M43.767,48.299c-1.1,0-2.1-0.4-2.8-1.1c0.7-0.801,1.2-1.9,1.2-3.101
		c0-0.399-0.101-0.8-0.2-1.2c1.4-0.399,2.5-1.399,3-2.8c1.7,0.5,3,2.101,3,4C47.966,46.499,46.066,48.299,43.767,48.299z"/>
</g>
<g id="ia_designer_more_ops">
	<circle fill="#FFFFFF" stroke="#59C3E8" stroke-width="0.4" stroke-miterlimit="10" cx="55.62" cy="32.124" r="7.5"/>
	<circle fill="#59C3E8" cx="55.62" cy="26.897" r="1.664"/>
	<circle fill="#59C3E8" cx="55.62" cy="37.351" r="1.664"/>
	<circle fill="#59C3E8" cx="55.62" cy="32.124" r="1.663"/>
</g>
</svg>
